<svg width="305" height="64" viewBox="0 0 305 64" fill="none" xmlns="http://www.w3.org/2000/svg">
<path d="M17.44 49.12V38.76H4.6V17.92H17.44V12.52H22.48V17.92H35.4V38.76H22.48V49.12H17.44ZM22.48 34.32H30.28V30.4H22.48V34.32ZM9.72 34.32H17.44V30.4H9.72V34.32ZM22.48 26.2H30.28V22.36H22.48V26.2ZM9.72 26.2H17.44V22.36H9.72V26.2ZM55.72 42.12C55.2667 41.56 54.72 40.9867 54.08 40.4C53.4667 39.7867 52.8533 39.3067 52.24 38.96C54.08 37.68 55.64 36.12 56.92 34.28C58.2267 32.44 59.2667 30.4667 60.04 28.36C60.84 26.2533 61.36 24.1733 61.6 22.12L64 22.48C63.9467 21.8933 63.9067 21.3067 63.88 20.72C63.8533 20.1067 63.84 19.48 63.84 18.84H56.56V14.24H68.4C68.16 17.84 68.2933 21.12 68.8 24.08C69.3067 27.0133 70.32 29.6533 71.84 32C73.36 34.3467 75.4933 36.4533 78.24 38.32C77.6267 38.8267 76.9867 39.4533 76.32 40.2C75.6533 40.9467 75.1333 41.5467 74.76 42C72.4133 40.2933 70.3867 38.28 68.68 35.96C66.9733 33.6133 65.7067 30.8533 64.88 27.68C64.0533 30.6133 62.8667 33.3067 61.32 35.76C59.8 38.1867 57.9333 40.3067 55.72 42.12ZM63.92 48.4C61.0933 48.4 58.7467 48.2533 56.88 47.96C55.0133 47.6933 53.48 47.2667 52.28 46.68C51.08 46.12 50.0533 45.4133 49.2 44.56C48.72 44.9067 48.0933 45.32 47.32 45.8C46.5733 46.2533 45.8 46.7067 45 47.16C44.2267 47.64 43.5467 48.04 42.96 48.36L41 43.68C41.5333 43.4667 42.1733 43.2133 42.92 42.92C43.6933 42.6 44.44 42.28 45.16 41.96C45.88 41.6133 46.4133 41.3467 46.76 41.16V31.2H42V27.04H51.32V40.56C51.8267 41.84 53.04 42.7467 54.96 43.28C56.9067 43.8133 59.8933 44.08 63.92 44.08C67.3333 44.08 70.2667 44.0267 72.72 43.92C75.1733 43.7867 77.16 43.6133 78.68 43.4C78.5467 43.6933 78.4 44.16 78.24 44.8C78.08 45.4133 77.9467 46.0533 77.84 46.72C77.7333 47.3867 77.6667 47.92 77.64 48.32C76.8933 48.32 75.92 48.32 74.72 48.32C73.52 48.3467 72.24 48.36 70.88 48.36C69.5467 48.3867 68.2667 48.4 67.04 48.4C65.8133 48.4 64.7733 48.4 63.92 48.4ZM49.72 22.28C49.24 21.6933 48.6 21.0267 47.8 20.28C47 19.5333 46.16 18.8 45.28 18.08C44.4 17.3333 43.5867 16.7333 42.84 16.28L45.84 13.2C46.5067 13.5733 47.2933 14.12 48.2 14.84C49.1333 15.5333 50.0267 16.2667 50.88 17.04C51.76 17.7867 52.44 18.44 52.92 19C52.68 19.2133 52.3467 19.5333 51.92 19.96C51.4933 20.36 51.0667 20.7733 50.64 21.2C50.24 21.6267 49.9333 21.9867 49.72 22.28ZM100.52 48.44C100.093 47.9867 99.4667 47.4933 98.64 46.96C97.84 46.4533 97.1333 46.08 96.52 45.84C98.4133 44.5333 100.12 42.9067 101.64 40.96C103.187 38.9867 104.453 36.8667 105.44 34.6C104.293 34.2533 103.133 33.9733 101.96 33.76C100.787 33.52 99.64 33.3467 98.52 33.24C97.8267 34.5467 97.1067 35.7467 96.36 36.84C95.64 37.9067 94.9067 38.8133 94.16 39.56C93.04 40.7067 91.8133 41.5067 90.48 41.96C89.1733 42.4133 87.9067 42.5467 86.68 42.36C85.48 42.1467 84.4933 41.6267 83.72 40.8C82.9467 39.9733 82.56 38.8667 82.56 37.48C82.56 35.9333 83.0667 34.52 84.08 33.24C85.0933 31.96 86.56 30.9333 88.48 30.16C90.4267 29.3867 92.8 28.9733 95.6 28.92C96.32 27.4 97.0133 25.7867 97.68 24.08C98.3467 22.3733 98.9467 20.68 99.48 19C98.4933 19.2667 97.4533 19.5333 96.36 19.8C95.2933 20.04 94.28 20.2533 93.32 20.44C92.3867 20.6267 91.6133 20.76 91 20.84L89.72 16.24C90.4133 16.2133 91.3067 16.1333 92.4 16C93.4933 15.8667 94.64 15.6933 95.84 15.48C97.0667 15.2667 98.2133 15.04 99.28 14.8C100.373 14.56 101.24 14.32 101.88 14.08L105.24 15.88C104.787 17.7467 104.147 19.8667 103.32 22.24C102.493 24.6133 101.547 26.9467 100.48 29.24C101.493 29.3733 102.52 29.5467 103.56 29.76C104.627 29.9733 105.707 30.2267 106.8 30.52C107.04 29.5867 107.227 28.6667 107.36 27.76C107.493 26.8267 107.573 25.9067 107.6 25L112.36 26.16C112.227 28.0267 111.907 29.92 111.4 31.84C112.467 32.1867 113.507 32.56 114.52 32.96C115.56 33.36 116.547 33.7867 117.48 34.24C117.213 34.56 116.92 34.9867 116.6 35.52C116.28 36.0533 115.987 36.6133 115.72 37.2C115.48 37.76 115.28 38.2533 115.12 38.68C114.293 38.2267 113.44 37.7867 112.56 37.36C111.707 36.9067 110.827 36.5067 109.92 36.16C108.88 38.5867 107.56 40.88 105.96 43.04C104.36 45.1733 102.547 46.9733 100.52 48.44ZM86.76 36.92C86.8133 37.2667 87.04 37.5467 87.44 37.76C87.84 37.9467 88.3333 37.9733 88.92 37.84C89.5333 37.7067 90.1867 37.3067 90.88 36.64C91.2533 36.2667 91.6533 35.7867 92.08 35.2C92.5067 34.6133 92.9333 33.9467 93.36 33.2C91.0933 33.44 89.4 33.9333 88.28 34.68C87.16 35.4 86.6533 36.1467 86.76 36.92ZM124 49.12C123.813 48.7467 123.56 48.3067 123.24 47.8C122.92 47.2933 122.573 46.7867 122.2 46.28C121.827 45.7733 121.453 45.3733 121.08 45.08C125.773 43.32 129.347 40.64 131.8 37.04C134.28 33.44 135.613 28.7733 135.8 23.04H121.6V18.6H136.8V12.52H142.04V18.6H157.36V23.04H140.88C140.853 23.76 140.813 24.4667 140.76 25.16C140.707 25.8533 140.64 26.5467 140.56 27.24H153.4C153.373 28.5467 153.293 29.9733 153.16 31.52C153.053 33.0667 152.893 34.6133 152.68 36.16C152.493 37.68 152.28 39.0933 152.04 40.4C151.8 41.68 151.547 42.72 151.28 43.52C150.827 44.9067 150.28 45.9733 149.64 46.72C149 47.4667 148.2 47.9733 147.24 48.24C146.307 48.5333 145.147 48.68 143.76 48.68H139.8C139.773 48.2267 139.693 47.6667 139.56 47C139.453 46.36 139.32 45.7333 139.16 45.12C139.027 44.48 138.88 43.9867 138.72 43.64H142.76C143.853 43.64 144.667 43.48 145.2 43.16C145.733 42.8133 146.133 42.2133 146.4 41.36C146.64 40.6667 146.867 39.7467 147.08 38.6C147.293 37.4267 147.48 36.2267 147.64 35C147.8 33.7467 147.88 32.6667 147.88 31.76H139.64C138.573 35.7333 136.76 39.16 134.2 42.04C131.667 44.92 128.267 47.28 124 49.12ZM194.76 48.72C194.493 48.1333 194.147 47.4667 193.72 46.72C193.293 46 192.827 45.24 192.32 44.44C191.467 44.68 190.373 44.9333 189.04 45.2C187.733 45.4667 186.307 45.7467 184.76 46.04C183.213 46.3333 181.653 46.6 180.08 46.84C178.533 47.1067 177.067 47.3333 175.68 47.52C174.293 47.7333 173.107 47.8933 172.12 48L171 43.28C171.72 43.2533 172.533 43.2133 173.44 43.16C174.373 43.08 175.36 42.9867 176.4 42.88C176.827 42 177.293 40.9867 177.8 39.84C178.333 38.6667 178.853 37.48 179.36 36.28C179.893 35.0533 180.347 33.9333 180.72 32.92H171.12V28.64H181.88V23.6H173.24V19.36H181.88V12.76H186.88V19.36H196.32V23.6H186.88V28.64H198V32.92H186.16C185.787 33.8267 185.36 34.84 184.88 35.96C184.4 37.0533 183.907 38.1467 183.4 39.24C182.893 40.3067 182.413 41.28 181.96 42.16C183.4 41.9467 184.8 41.7333 186.16 41.52C187.547 41.28 188.813 41.04 189.96 40.8C189.453 40.1067 188.96 39.4533 188.48 38.84C188.027 38.2267 187.6 37.7067 187.2 37.28L190.88 34.76C191.733 35.64 192.653 36.7333 193.64 38.04C194.627 39.3467 195.587 40.7067 196.52 42.12C197.453 43.5067 198.213 44.8133 198.8 46.04C198.187 46.3067 197.493 46.6933 196.72 47.2C195.947 47.7333 195.293 48.24 194.76 48.72ZM165.76 48.68L161.68 45.76C162.293 44.96 162.92 44.0133 163.56 42.92C164.2 41.8267 164.813 40.6933 165.4 39.52C166.013 38.32 166.56 37.1467 167.04 36C167.547 34.8533 167.933 33.8267 168.2 32.92C168.413 33.16 168.747 33.4667 169.2 33.84C169.68 34.2133 170.173 34.5733 170.68 34.92C171.187 35.2667 171.613 35.5467 171.96 35.76C171.667 36.6933 171.28 37.7467 170.8 38.92C170.32 40.0667 169.787 41.24 169.2 42.44C168.613 43.64 168.027 44.7867 167.44 45.88C166.853 46.9467 166.293 47.88 165.76 48.68ZM167.96 30.36C167.48 29.9333 166.813 29.4267 165.96 28.84C165.133 28.2533 164.267 27.6933 163.36 27.16C162.453 26.6 161.653 26.1733 160.96 25.88L163.32 22.04C164.493 22.6 165.76 23.28 167.12 24.08C168.507 24.8533 169.667 25.6267 170.6 26.4C170.387 26.64 170.093 27.0267 169.72 27.56C169.373 28.0667 169.027 28.5867 168.68 29.12C168.36 29.6533 168.12 30.0667 167.96 30.36ZM169.84 21.2C169.387 20.7733 168.733 20.2667 167.88 19.68C167.053 19.0933 166.173 18.5333 165.24 18C164.333 17.4667 163.533 17.0533 162.84 16.76L165.28 13C166 13.2933 166.827 13.7067 167.76 14.24C168.693 14.7733 169.6 15.32 170.48 15.88C171.36 16.44 172.053 16.9333 172.56 17.36C172.347 17.6 172.053 17.9733 171.68 18.48C171.307 18.9867 170.947 19.4933 170.6 20C170.253 20.5067 170 20.9067 169.84 21.2Z" fill="#F5EFE7"/>
<path d="M240 5L238.801 64H181L240 5Z" fill="#05032B"/>
<path d="M189 54.5979L228.598 14.9999" stroke="#F5EFE7" stroke-width="2"/>
<path d="M227.227 53.231C225.511 53.297 224.092 52.923 222.97 52.109C221.87 51.295 221.32 50.118 221.32 48.578C221.32 47.456 221.661 46.499 222.343 45.707C223.025 44.915 223.905 44.299 224.983 43.859C226.061 43.397 227.172 43.155 228.316 43.133C228.888 43.089 229.427 43.133 229.933 43.265C230.439 43.397 230.89 43.584 231.286 43.826V42.44C231.286 41.406 231.066 40.735 230.626 40.427C230.186 40.119 229.537 39.965 228.679 39.965C227.755 39.965 226.776 40.141 225.742 40.493C224.73 40.823 223.861 41.241 223.135 41.747L221.452 38.876C222.354 38.304 223.443 37.809 224.719 37.391C225.995 36.951 227.315 36.731 228.679 36.731C230.725 36.731 232.265 37.149 233.299 37.985C234.333 38.799 234.85 40.284 234.85 42.44V49.733C234.85 50.195 234.949 50.459 235.147 50.525C235.367 50.591 235.851 50.514 236.599 50.294V52.637C236.269 52.791 235.851 52.923 235.345 53.033C234.861 53.165 234.333 53.231 233.761 53.231C233.079 53.231 232.551 53.121 232.177 52.901C231.825 52.659 231.572 52.263 231.418 51.713C230.868 52.175 230.23 52.538 229.504 52.802C228.778 53.044 228.019 53.187 227.227 53.231ZM227.161 49.997C228.393 49.953 229.405 49.711 230.197 49.271C231.011 48.831 231.396 48.204 231.352 47.39C231.33 46.862 231.055 46.499 230.527 46.301C230.021 46.103 229.383 46.026 228.613 46.07C227.535 46.092 226.644 46.367 225.94 46.895C225.236 47.401 224.895 47.973 224.917 48.611C224.961 49.601 225.709 50.063 227.161 49.997ZM240.961 59.501V37.127H244.195L244.393 38.876C245.515 37.446 246.989 36.731 248.815 36.731C250.289 36.731 251.598 37.061 252.742 37.721C253.908 38.381 254.821 39.338 255.481 40.592C256.141 41.824 256.471 43.309 256.471 45.047C256.471 46.785 256.141 48.281 255.481 49.535C254.821 50.767 253.908 51.713 252.742 52.373C251.598 53.033 250.289 53.363 248.815 53.363C248.001 53.363 247.242 53.209 246.538 52.901C245.834 52.571 245.218 52.12 244.69 51.548V59.501H240.961ZM248.683 49.997C249.849 49.997 250.817 49.568 251.587 48.71C252.357 47.852 252.742 46.631 252.742 45.047C252.742 43.463 252.357 42.242 251.587 41.384C250.817 40.526 249.849 40.097 248.683 40.097C247.517 40.097 246.549 40.526 245.779 41.384C245.009 42.242 244.624 43.463 244.624 45.047C244.624 46.631 245.009 47.852 245.779 48.71C246.549 49.568 247.517 49.997 248.683 49.997ZM261.005 59.501V37.127H264.239L264.437 38.876C265.559 37.446 267.033 36.731 268.859 36.731C270.333 36.731 271.642 37.061 272.786 37.721C273.952 38.381 274.865 39.338 275.525 40.592C276.185 41.824 276.515 43.309 276.515 45.047C276.515 46.785 276.185 48.281 275.525 49.535C274.865 50.767 273.952 51.713 272.786 52.373C271.642 53.033 270.333 53.363 268.859 53.363C268.045 53.363 267.286 53.209 266.582 52.901C265.878 52.571 265.262 52.12 264.734 51.548V59.501H261.005ZM268.727 49.997C269.893 49.997 270.861 49.568 271.631 48.71C272.401 47.852 272.786 46.631 272.786 45.047C272.786 43.463 272.401 42.242 271.631 41.384C270.861 40.526 269.893 40.097 268.727 40.097C267.561 40.097 266.593 40.526 265.823 41.384C265.053 42.242 264.668 43.463 264.668 45.047C264.668 46.631 265.053 47.852 265.823 48.71C266.593 49.568 267.561 49.997 268.727 49.997ZM281.048 53V29.471H284.777V53H281.048ZM292.115 59.567C291.587 59.567 291.092 59.545 290.63 59.501C290.168 59.479 289.75 59.424 289.376 59.336V55.937C289.75 56.025 290.135 56.091 290.531 56.135C290.949 56.201 291.345 56.234 291.719 56.234C292.313 56.234 292.753 56.168 293.039 56.036C293.347 55.904 293.589 55.684 293.765 55.376C293.941 55.068 294.139 54.65 294.359 54.122L294.788 52.967L288.518 37.127H292.379L296.405 48.512L300.2 37.127H303.995L297.527 55.211C296.999 56.663 296.35 57.752 295.58 58.478C294.832 59.204 293.677 59.567 292.115 59.567Z" fill="#F5EFE7"/>
</svg>
