<svg width="514" height="70" viewBox="0 0 514 70" fill="none" xmlns="http://www.w3.org/2000/svg">
<path d="M3.88 40.28V35.28C4.76 35.36 6.41333 35.4133 8.84 35.44C11.2667 35.44 14.2 35.4533 17.64 35.48V25C16.1467 25 14.7067 25.0133 13.32 25.04C11.96 25.0667 10.7867 25.0933 9.8 25.12C8.81333 25.12 8.13333 25.1467 7.76 25.2V20.2C8.53333 20.28 10.0133 20.3333 12.2 20.36C14.4133 20.3867 17.0933 20.4 20.24 20.4C23.28 20.4 25.8933 20.3867 28.08 20.36C30.2933 20.3333 31.76 20.28 32.48 20.2V25.2C31.8933 25.1467 30.7467 25.1067 29.04 25.08C27.36 25.0533 25.2267 25.0267 22.64 25V35.44C24.8267 35.44 26.8267 35.44 28.64 35.44C30.48 35.4133 32.0133 35.3867 33.24 35.36C34.4933 35.3333 35.3467 35.3067 35.8 35.28V40.28C34.9467 40.2 33.1333 40.1467 30.36 40.12C27.6133 40.0933 24.1733 40.08 20.04 40.08C18.3067 40.08 16.5733 40.08 14.84 40.08C13.1067 40.08 11.48 40.0933 9.96 40.12C8.46667 40.1467 7.18667 40.1733 6.12 40.2C5.05333 40.2 4.30667 40.2267 3.88 40.28ZM54.84 47.88C54.6533 47.5067 54.3733 47.0667 54 46.56C53.6533 46.0533 53.2667 45.5467 52.84 45.04C52.4133 44.5333 52.0133 44.12 51.64 43.8C54.3867 42.6533 56.6533 41.28 58.44 39.68C60.2267 38.08 61.56 36.1333 62.44 33.84C63.32 31.52 63.76 28.76 63.76 25.56V23.72C63.76 23.1333 63.7467 22.3733 63.72 21.44C63.72 20.5067 63.7067 19.5467 63.68 18.56C63.68 17.5733 63.6667 16.68 63.64 15.88C63.64 15.08 63.6267 14.5067 63.6 14.16H68.76V25.56C68.76 29.2933 68.2667 32.5467 67.28 35.32C66.2933 38.0667 64.7733 40.4667 62.72 42.52C60.6667 44.5467 58.04 46.3333 54.84 47.88ZM51.52 34.04C51.5467 33.8 51.5467 33.2133 51.52 32.28C51.52 31.32 51.5067 30.16 51.48 28.8C51.48 27.44 51.4667 26.0133 51.44 24.52C51.4133 23.0267 51.3733 21.6 51.32 20.24C51.2933 18.88 51.2667 17.7333 51.24 16.8C51.2133 15.84 51.1867 15.24 51.16 15H56.12C56.12 15.2933 56.12 15.9067 56.12 16.84C56.12 17.7733 56.12 18.9067 56.12 20.24C56.1467 21.5467 56.1733 22.92 56.2 24.36C56.2267 25.8 56.2533 27.2 56.28 28.56C56.3333 29.8933 56.3733 31.0533 56.4 32.04C56.4533 33 56.4933 33.6533 56.52 34L51.52 34.04ZM106.32 31.8C106.08 31.48 105.733 31.12 105.28 30.72C104.853 30.32 104.4 29.9333 103.92 29.56C103.44 29.1867 103 28.8933 102.6 28.68C103.32 28.12 104.107 27.44 104.96 26.64C105.813 25.84 106.667 24.9733 107.52 24.04C108.373 23.1067 109.16 22.1733 109.88 21.24C108.413 21.2667 106.72 21.32 104.8 21.4C102.907 21.4533 100.947 21.52 98.92 21.6C96.92 21.68 94.9867 21.76 93.12 21.84C91.2533 21.92 89.6 21.9867 88.16 22.04C86.72 22.0933 85.6533 22.1467 84.96 22.2L84.76 17.16C85.64 17.2133 86.84 17.2533 88.36 17.28C89.9067 17.28 91.6267 17.28 93.52 17.28C95.44 17.2533 97.4133 17.2267 99.44 17.2C101.467 17.1467 103.413 17.0933 105.28 17.04C107.173 16.96 108.853 16.8667 110.32 16.76C111.813 16.6533 112.947 16.5467 113.72 16.44L116.88 18.88C116.293 19.9467 115.573 21.08 114.72 22.28C113.867 23.48 112.947 24.68 111.96 25.88C111 27.0533 110.027 28.16 109.04 29.2C108.08 30.2133 107.173 31.08 106.32 31.8ZM90.88 47.76C90.64 47.4133 90.32 47 89.92 46.52C89.52 46.0667 89.0933 45.6267 88.64 45.2C88.1867 44.7467 87.7467 44.4 87.32 44.16C89.8 42.7733 91.7733 41.08 93.24 39.08C94.7067 37.08 95.7467 34.8133 96.36 32.28C96.9733 29.7467 97.2267 27.0133 97.12 24.08H102.12C102.12 29.52 101.2 34.2 99.36 38.12C97.5467 42.0133 94.72 45.2267 90.88 47.76ZM137.56 45.12C135.773 45.12 134.173 44.9333 132.76 44.56C131.373 44.16 130.173 43.4667 129.16 42.48C128.173 41.4667 127.36 40.04 126.72 38.2L130.96 35.88C131.307 37.2667 132.013 38.32 133.08 39.04C134.147 39.76 135.64 40.12 137.56 40.12C139.267 40.12 141.027 40.04 142.84 39.88C144.653 39.72 146.36 39.4933 147.96 39.2C149.56 38.9067 150.88 38.5733 151.92 38.2C151.92 38.6267 151.947 39.1867 152 39.88C152.08 40.5733 152.173 41.2533 152.28 41.92C152.413 42.5867 152.533 43.1067 152.64 43.48C151.573 43.8267 150.213 44.12 148.56 44.36C146.907 44.6 145.12 44.7867 143.2 44.92C141.307 45.0533 139.427 45.12 137.56 45.12ZM131.28 21.6L131.24 16.76C132.013 17 132.973 17.1867 134.12 17.32C135.293 17.4533 136.547 17.5333 137.88 17.56C139.24 17.5867 140.6 17.5733 141.96 17.52C143.32 17.44 144.573 17.3333 145.72 17.2C146.867 17.04 147.813 16.84 148.56 16.6V21.48C147.893 21.6933 146.987 21.8667 145.84 22C144.693 22.1333 143.44 22.24 142.08 22.32C140.72 22.3733 139.347 22.3867 137.96 22.36C136.573 22.3333 135.293 22.2533 134.12 22.12C132.947 21.9867 132 21.8133 131.28 21.6ZM153.92 22.48C153.413 21.6533 152.733 20.7733 151.88 19.84C151.027 18.9067 150.267 18.1467 149.6 17.56L151.76 15.8C152.16 16.12 152.64 16.5867 153.2 17.2C153.787 17.8133 154.36 18.44 154.92 19.08C155.48 19.6933 155.907 20.2267 156.2 20.68L153.92 22.48ZM157.48 19.44C156.973 18.6133 156.293 17.7467 155.44 16.84C154.587 15.9067 153.813 15.16 153.12 14.6L155.32 12.8C155.72 13.12 156.2 13.5867 156.76 14.2C157.347 14.7867 157.92 15.4 158.48 16.04C159.04 16.6533 159.467 17.1867 159.76 17.64L157.48 19.44ZM191.84 46.32C189.333 46.7467 186.893 47.04 184.52 47.2C182.147 47.36 179.933 47.3333 177.88 47.12C175.827 46.9067 174.027 46.48 172.48 45.84C170.933 45.1733 169.72 44.2667 168.84 43.12C167.987 41.9467 167.56 40.4933 167.56 38.76C167.56 36.4667 168.36 34.52 169.96 32.92C171.587 31.2933 173.76 29.8933 176.48 28.72C176.053 27.5733 175.68 26.2 175.36 24.6C175.067 22.9733 174.867 21.2133 174.76 19.32C174.653 17.4 174.64 15.44 174.72 13.44H179.88C179.72 14.9067 179.667 16.4933 179.72 18.2C179.773 19.88 179.893 21.4933 180.08 23.04C180.293 24.5867 180.56 25.92 180.88 27.04C182.213 26.6133 183.613 26.2 185.08 25.8C186.573 25.4 188.093 25 189.64 24.6L190.6 29.6C188.253 29.8667 186 30.2933 183.84 30.88C181.68 31.44 179.747 32.12 178.04 32.92C176.333 33.6933 174.973 34.56 173.96 35.52C172.973 36.4533 172.48 37.44 172.48 38.48C172.48 39.6 173.013 40.4933 174.08 41.16C175.147 41.8267 176.613 42.28 178.48 42.52C180.347 42.7333 182.48 42.7333 184.88 42.52C187.307 42.28 189.867 41.8133 192.56 41.12C192.293 41.7867 192.093 42.64 191.96 43.68C191.853 44.72 191.813 45.6 191.84 46.32ZM223.08 46.36C222.973 45.9333 222.773 45.4267 222.48 44.84C222.187 44.2533 221.84 43.6933 221.44 43.16C221.067 42.6 220.693 42.1467 220.32 41.8C223.973 41.24 226.747 40.0533 228.64 38.24C230.56 36.4 231.573 34.24 231.68 31.76C231.787 29.7867 231.427 28.0267 230.6 26.48C229.773 24.9333 228.64 23.68 227.2 22.72C225.787 21.76 224.227 21.1867 222.52 21C222.307 23.48 221.907 26.0133 221.32 28.6C220.733 31.1867 219.933 33.6133 218.92 35.88C217.933 38.1467 216.72 40.0667 215.28 41.64C214.187 42.8133 213.12 43.4933 212.08 43.68C211.067 43.8667 209.987 43.72 208.84 43.24C207.72 42.76 206.733 42 205.88 40.96C205.027 39.92 204.373 38.6933 203.92 37.28C203.467 35.84 203.28 34.3067 203.36 32.68C203.493 30.2533 204.067 28.04 205.08 26.04C206.093 24.0133 207.453 22.2667 209.16 20.8C210.867 19.3333 212.827 18.2267 215.04 17.48C217.253 16.7333 219.613 16.4267 222.12 16.56C224.147 16.6667 226.053 17.12 227.84 17.92C229.627 18.72 231.187 19.8267 232.52 21.24C233.88 22.6267 234.92 24.24 235.64 26.08C236.387 27.92 236.693 29.9333 236.56 32.12C236.373 35.7733 235.093 38.84 232.72 41.32C230.347 43.7733 227.133 45.4533 223.08 46.36ZM210.08 38.28C210.373 38.4933 210.68 38.6 211 38.6C211.32 38.6 211.64 38.44 211.96 38.12C212.92 37.16 213.8 35.8 214.6 34.04C215.427 32.28 216.107 30.2933 216.64 28.08C217.2 25.8667 217.56 23.6133 217.72 21.32C215.88 21.7467 214.24 22.52 212.8 23.64C211.387 24.76 210.267 26.12 209.44 27.72C208.613 29.2933 208.147 31.0267 208.04 32.92C207.987 34.1733 208.147 35.2667 208.52 36.2C208.92 37.1067 209.44 37.8 210.08 38.28ZM272 35.12C270.56 34.56 268.92 33.9733 267.08 33.36C265.267 32.7467 263.373 32.1467 261.4 31.56C259.427 32.5733 257.187 33.3467 254.68 33.88C252.2 34.3867 249.347 34.7467 246.12 34.96C246.013 34.4267 245.84 33.8 245.6 33.08C245.387 32.3333 245.16 31.7467 244.92 31.32C247.08 31.2933 249.027 31.1733 250.76 30.96C252.52 30.7467 254.107 30.4267 255.52 30C254.373 29.7067 253.227 29.4533 252.08 29.24C250.96 29.0267 249.867 28.84 248.8 28.68C249.173 28.3067 249.627 27.8267 250.16 27.24C250.693 26.6533 251.253 26.0133 251.84 25.32H245.6V23.28H242.56V15.32H257.44V12.32H262.44V15.32H277.36V23.12H274.28V25.32H268.88C268.347 25.9867 267.787 26.6267 267.2 27.24C266.613 27.8533 266 28.4267 265.36 28.96C266.827 29.3067 268.32 29.7067 269.84 30.16C271.36 30.5867 272.853 31.0667 274.32 31.6C273.947 32.0267 273.52 32.6133 273.04 33.36C272.587 34.08 272.24 34.6667 272 35.12ZM257.64 49.2V41.56C256.467 42.4933 255.12 43.4133 253.6 44.32C252.08 45.2267 250.52 46.04 248.92 46.76C247.347 47.48 245.867 48.04 244.48 48.44C244.267 47.9067 243.947 47.28 243.52 46.56C243.093 45.8667 242.64 45.3067 242.16 44.88C243.333 44.56 244.64 44.1067 246.08 43.52C247.547 42.9333 249.013 42.2667 250.48 41.52C251.947 40.7733 253.293 40 254.52 39.2H242.16V35.72H257.64V33.12H262.32V35.72H277.88V39.2H265.8C267.027 39.9467 268.347 40.6667 269.76 41.36C271.173 42.0267 272.587 42.6267 274 43.16C275.44 43.6933 276.76 44.12 277.96 44.44C277.533 44.8667 277.08 45.4667 276.6 46.24C276.12 47.04 275.773 47.7067 275.56 48.24C274.173 47.84 272.68 47.28 271.08 46.56C269.48 45.84 267.92 45.0267 266.4 44.12C264.88 43.1867 263.52 42.2533 262.32 41.32V49.2H257.64ZM259.84 21.72H272.8V18.8H262.16C261.867 19.2 261.52 19.6533 261.12 20.16C260.72 20.6667 260.293 21.1867 259.84 21.72ZM247.12 21.72H254.84C255.293 21.1867 255.72 20.6667 256.12 20.16C256.52 19.6533 256.867 19.2 257.16 18.8H247.12V21.72ZM260.48 27.8C261.04 27.4267 261.573 27.04 262.08 26.64C262.587 26.2133 263.067 25.7733 263.52 25.32H256.84C256.573 25.6133 256.32 25.8933 256.08 26.16C255.867 26.4267 255.68 26.6533 255.52 26.84C256.267 26.9467 257.053 27.08 257.88 27.24C258.707 27.4 259.573 27.5867 260.48 27.8ZM283.52 48.76V19.2H297.48V12.52H302.44V19.2H316.44V44.36C316.44 47.2133 314.72 48.64 311.28 48.64H307.88C307.853 48.1867 307.787 47.6533 307.68 47.04C307.573 46.4267 307.44 45.8267 307.28 45.24C307.147 44.6267 307 44.1467 306.84 43.8H309.96C310.52 43.8 310.92 43.7067 311.16 43.52C311.427 43.3333 311.56 42.9733 311.56 42.44V23.84H302.36C302.28 24.6667 302.173 25.4533 302.04 26.2C301.933 26.92 301.787 27.6267 301.6 28.32C302.72 29.0933 303.893 29.9867 305.12 31C306.347 31.9867 307.52 33.0133 308.64 34.08C309.76 35.12 310.707 36.1067 311.48 37.04C311.107 37.28 310.667 37.6133 310.16 38.04C309.68 38.4667 309.213 38.92 308.76 39.4C308.333 39.8533 308 40.28 307.76 40.68C306.8 39.3467 305.6 37.9467 304.16 36.48C302.747 35.0133 301.333 33.7067 299.92 32.56C298.987 34.2933 297.787 35.8533 296.32 37.24C294.88 38.6267 293.187 39.9333 291.24 41.16C291.027 40.7067 290.627 40.16 290.04 39.52C289.48 38.8533 288.947 38.3067 288.44 37.88V48.76H283.52ZM288.44 37.12C290.92 35.76 292.933 34.0267 294.48 31.92C296.053 29.7867 297.013 27.0933 297.36 23.84H288.44V37.12Z" fill="#F5EFE7"/>
<path d="M352 9L350.801 68H293L352 9Z" fill="#05032B"/>
<path d="M301 58.598L340.598 19" stroke="#F5EFE7" stroke-width="2"/>
<path d="M334.541 60V44.127H338.237V60H334.541ZM336.356 41.52C335.718 41.52 335.168 41.289 334.706 40.827C334.244 40.365 334.013 39.815 334.013 39.177C334.013 38.539 334.244 37.989 334.706 37.527C335.168 37.065 335.718 36.834 336.356 36.834C336.994 36.834 337.544 37.065 338.006 37.527C338.468 37.989 338.699 38.539 338.699 39.177C338.699 39.815 338.468 40.365 338.006 40.827C337.544 41.289 336.994 41.52 336.356 41.52ZM344.034 60V44.127H347.367L347.565 46.008C348.005 45.392 348.588 44.864 349.314 44.424C350.04 43.962 350.898 43.731 351.888 43.731C353.538 43.731 354.88 44.259 355.914 45.315C356.97 46.371 357.498 47.922 357.498 49.968V60H353.769V50.859C353.769 49.605 353.516 48.67 353.01 48.054C352.504 47.416 351.822 47.097 350.964 47.097C350.018 47.097 349.248 47.427 348.654 48.087C348.06 48.725 347.763 49.682 347.763 50.958V60H344.034ZM364.535 60V47.328H361.532V44.127H364.535V41.289C364.535 39.331 364.986 37.978 365.888 37.23C366.79 36.482 368.077 36.108 369.749 36.108C370.277 36.108 370.805 36.141 371.333 36.207C371.883 36.273 372.323 36.35 372.653 36.438V39.804C372.345 39.694 372.004 39.606 371.63 39.54C371.278 39.452 370.915 39.408 370.541 39.408C369.793 39.408 369.221 39.595 368.825 39.969C368.429 40.321 368.231 40.915 368.231 41.751V44.127H372.653V47.328H368.231V60H364.535ZM383.218 60.363C381.766 60.363 380.457 60.022 379.291 59.34C378.147 58.636 377.234 57.668 376.552 56.436C375.892 55.182 375.562 53.719 375.562 52.047C375.562 50.375 375.892 48.923 376.552 47.691C377.234 46.437 378.147 45.469 379.291 44.787C380.457 44.083 381.766 43.731 383.218 43.731C384.714 43.731 386.034 44.083 387.178 44.787C388.344 45.469 389.257 46.437 389.917 47.691C390.577 48.923 390.907 50.375 390.907 52.047C390.907 53.719 390.577 55.182 389.917 56.436C389.257 57.668 388.344 58.636 387.178 59.34C386.034 60.022 384.714 60.363 383.218 60.363ZM383.218 56.997C384.384 56.997 385.33 56.568 386.056 55.71C386.804 54.852 387.178 53.631 387.178 52.047C387.178 50.463 386.804 49.242 386.056 48.384C385.33 47.526 384.384 47.097 383.218 47.097C382.074 47.097 381.139 47.526 380.413 48.384C379.687 49.242 379.324 50.463 379.324 52.047C379.324 53.631 379.687 54.852 380.413 55.71C381.139 56.568 382.074 56.997 383.218 56.997ZM395.432 60V44.127H398.798L399.029 46.371C399.425 45.579 400.041 44.941 400.877 44.457C401.735 43.973 402.637 43.731 403.583 43.731C403.957 43.731 404.298 43.753 404.606 43.797C404.914 43.841 405.178 43.896 405.398 43.962V47.559C405.112 47.471 404.771 47.405 404.375 47.361C404.001 47.295 403.561 47.262 403.055 47.262C401.977 47.262 401.053 47.614 400.283 48.318C399.535 49.022 399.161 50.012 399.161 51.288V60H395.432ZM409.352 60V44.127H412.685L412.916 46.041C413.224 45.381 413.741 44.831 414.467 44.391C415.193 43.951 416.029 43.731 416.975 43.731C418.009 43.731 418.911 43.973 419.681 44.457C420.451 44.941 421.045 45.634 421.463 46.536C421.881 45.722 422.486 45.051 423.278 44.523C424.092 43.995 425.016 43.731 426.05 43.731C427.612 43.731 428.866 44.281 429.812 45.381C430.78 46.459 431.264 47.988 431.264 49.968V60H427.502V50.826C427.502 49.66 427.293 48.747 426.875 48.087C426.457 47.427 425.874 47.097 425.126 47.097C424.18 47.097 423.443 47.438 422.915 48.12C422.409 48.802 422.156 49.77 422.156 51.024V60H418.427V50.826C418.427 49.66 418.207 48.747 417.767 48.087C417.327 47.427 416.733 47.097 415.985 47.097C415.061 47.097 414.346 47.449 413.84 48.153C413.334 48.835 413.081 49.792 413.081 51.024V60H409.352ZM441.829 60.231C440.113 60.297 438.694 59.923 437.572 59.109C436.472 58.295 435.922 57.118 435.922 55.578C435.922 54.456 436.263 53.499 436.945 52.707C437.627 51.915 438.507 51.299 439.585 50.859C440.663 50.397 441.774 50.155 442.918 50.133C443.49 50.089 444.029 50.133 444.535 50.265C445.041 50.397 445.492 50.584 445.888 50.826V49.44C445.888 48.406 445.668 47.735 445.228 47.427C444.788 47.119 444.139 46.965 443.281 46.965C442.357 46.965 441.378 47.141 440.344 47.493C439.332 47.823 438.463 48.241 437.737 48.747L436.054 45.876C436.956 45.304 438.045 44.809 439.321 44.391C440.597 43.951 441.917 43.731 443.281 43.731C445.327 43.731 446.867 44.149 447.901 44.985C448.935 45.799 449.452 47.284 449.452 49.44V56.733C449.452 57.195 449.551 57.459 449.749 57.525C449.969 57.591 450.453 57.514 451.201 57.294V59.637C450.871 59.791 450.453 59.923 449.947 60.033C449.463 60.165 448.935 60.231 448.363 60.231C447.681 60.231 447.153 60.121 446.779 59.901C446.427 59.659 446.174 59.263 446.02 58.713C445.47 59.175 444.832 59.538 444.106 59.802C443.38 60.044 442.621 60.187 441.829 60.231ZM441.763 56.997C442.995 56.953 444.007 56.711 444.799 56.271C445.613 55.831 445.998 55.204 445.954 54.39C445.932 53.862 445.657 53.499 445.129 53.301C444.623 53.103 443.985 53.026 443.215 53.07C442.137 53.092 441.246 53.367 440.542 53.895C439.838 54.401 439.497 54.973 439.519 55.611C439.563 56.601 440.311 57.063 441.763 56.997ZM461.065 60.363C459.503 60.363 458.304 60.077 457.468 59.505C456.654 58.933 456.247 57.789 456.247 56.073V47.328H453.211V44.127H456.247V38.55H459.943V44.127H464.332V47.328H459.943V55.116C459.943 55.864 460.119 56.37 460.471 56.634C460.845 56.898 461.373 57.03 462.055 57.03C462.473 57.03 462.891 56.964 463.309 56.832C463.749 56.7 464.09 56.568 464.332 56.436V59.835C463.936 59.989 463.441 60.11 462.847 60.198C462.253 60.308 461.659 60.363 461.065 60.363ZM469.109 60V44.127H472.805V60H469.109ZM470.924 41.52C470.286 41.52 469.736 41.289 469.274 40.827C468.812 40.365 468.581 39.815 468.581 39.177C468.581 38.539 468.812 37.989 469.274 37.527C469.736 37.065 470.286 36.834 470.924 36.834C471.562 36.834 472.112 37.065 472.574 37.527C473.036 37.989 473.267 38.539 473.267 39.177C473.267 39.815 473.036 40.365 472.574 40.827C472.112 41.289 471.562 41.52 470.924 41.52ZM485.433 60.363C483.981 60.363 482.672 60.022 481.506 59.34C480.362 58.636 479.449 57.668 478.767 56.436C478.107 55.182 477.777 53.719 477.777 52.047C477.777 50.375 478.107 48.923 478.767 47.691C479.449 46.437 480.362 45.469 481.506 44.787C482.672 44.083 483.981 43.731 485.433 43.731C486.929 43.731 488.249 44.083 489.393 44.787C490.559 45.469 491.472 46.437 492.132 47.691C492.792 48.923 493.122 50.375 493.122 52.047C493.122 53.719 492.792 55.182 492.132 56.436C491.472 57.668 490.559 58.636 489.393 59.34C488.249 60.022 486.929 60.363 485.433 60.363ZM485.433 56.997C486.599 56.997 487.545 56.568 488.271 55.71C489.019 54.852 489.393 53.631 489.393 52.047C489.393 50.463 489.019 49.242 488.271 48.384C487.545 47.526 486.599 47.097 485.433 47.097C484.289 47.097 483.354 47.526 482.628 48.384C481.902 49.242 481.539 50.463 481.539 52.047C481.539 53.631 481.902 54.852 482.628 55.71C483.354 56.568 484.289 56.997 485.433 56.997ZM497.647 60V44.127H500.98L501.178 46.008C501.618 45.392 502.201 44.864 502.927 44.424C503.653 43.962 504.511 43.731 505.501 43.731C507.151 43.731 508.493 44.259 509.527 45.315C510.583 46.371 511.111 47.922 511.111 49.968V60H507.382V50.859C507.382 49.605 507.129 48.67 506.623 48.054C506.117 47.416 505.435 47.097 504.577 47.097C503.631 47.097 502.861 47.427 502.267 48.087C501.673 48.725 501.376 49.682 501.376 50.958V60H497.647Z" fill="#F5EFE7"/>
</svg>
