<svg width="198" height="68" viewBox="0 0 198 68" fill="none" xmlns="http://www.w3.org/2000/svg">
<path d="M9.24 48.84V35.96C8.41333 37.1867 7.54667 38.3333 6.64 39.4C5.76 40.4667 4.89333 41.3867 4.04 42.16C3.66667 41.68 3.17333 41.16 2.56 40.6C1.94667 40.04 1.37333 39.6133 0.84 39.32C1.74667 38.5733 2.68 37.6533 3.64 36.56C4.62667 35.44 5.56 34.2533 6.44 33C7.32 31.72 8.06667 30.48 8.68 29.28H2.28V25.16H9.24V12.64H13.6V25.16H19.48V29.28H13.6V29.68C14.08 30.2667 14.6933 30.96 15.44 31.76C16.2133 32.5333 17 33.28 17.8 34C18.6 34.72 19.3067 35.3067 19.92 35.76C21.2533 35.6 22.8267 35.3733 24.64 35.08C26.4533 34.76 28.2667 34.4267 30.08 34.08V20.96C29.7867 21.2 29.44 21.52 29.04 21.92C28.6667 22.2933 28.2933 22.6667 27.92 23.04C27.5733 23.4133 27.3067 23.7333 27.12 24C26.3733 23.2267 25.4933 22.3733 24.48 21.44C23.4667 20.5067 22.4667 19.7467 21.48 19.16L24.4 16.12C25.3333 16.7067 26.32 17.4667 27.36 18.4C28.4267 19.3067 29.3333 20.1333 30.08 20.88V12.6H34.56V33.2C35.4933 32.9867 36.3333 32.8 37.08 32.64C37.8267 32.4533 38.4267 32.28 38.88 32.12L39.16 36.48C38.5733 36.64 37.8933 36.8133 37.12 37C36.3467 37.16 35.4933 37.3467 34.56 37.56V48.84H30.08V38.52C28.16 38.8933 26.28 39.2533 24.44 39.6C22.6 39.92 21.0667 40.1733 19.84 40.36L19.08 36.92C18.7333 37.32 18.3867 37.7333 18.04 38.16C17.72 38.56 17.48 38.9067 17.32 39.2C16.7333 38.6933 16.12 38.1067 15.48 37.44C14.84 36.7733 14.2133 36.0667 13.6 35.32V48.84H9.24ZM26.08 32.64C25.3333 31.8667 24.44 31.04 23.4 30.16C22.36 29.2533 21.3333 28.5067 20.32 27.92L23.08 24.8C23.72 25.2 24.4 25.68 25.12 26.24C25.84 26.7733 26.5333 27.3333 27.2 27.92C27.8933 28.48 28.4933 29 29 29.48C28.7333 29.6933 28.4133 30 28.04 30.4C27.6667 30.7733 27.2933 31.1733 26.92 31.6C26.5733 32 26.2933 32.3467 26.08 32.64ZM17.76 24.2C17.3333 23.96 16.7467 23.68 16 23.36C15.2533 23.0133 14.6533 22.7867 14.2 22.68C14.4933 22.1467 14.8267 21.4533 15.2 20.6C15.6 19.72 15.96 18.8133 16.28 17.88C16.6 16.92 16.8267 16.1067 16.96 15.44L20.76 16.56C20.6533 17.04 20.4667 17.64 20.2 18.36C19.96 19.0533 19.6933 19.7867 19.4 20.56C19.1067 21.3067 18.8133 22.0133 18.52 22.68C18.2267 23.32 17.9733 23.8267 17.76 24.2ZM4.72 24.12C4.58667 23.48 4.36 22.72 4.04 21.84C3.74667 20.9333 3.41333 20.04 3.04 19.16C2.69333 18.28 2.34667 17.56 2 17L5.64 15.56C5.96 16.0933 6.30667 16.8267 6.68 17.76C7.08 18.6667 7.44 19.5867 7.76 20.52C8.10667 21.4267 8.34667 22.1733 8.48 22.76C7.94667 22.8667 7.28 23.0667 6.48 23.36C5.68 23.6533 5.09333 23.9067 4.72 24.12ZM43.04 47.88V43.76H51.4C50.92 42.7733 50.32 41.7467 49.6 40.68C48.88 39.5867 48.1867 38.6667 47.52 37.92L51.08 35.76H45.48V31.48H57.48V28.32H50.96V25.12C49.6267 26.0533 48.2933 26.92 46.96 27.72C45.6267 28.4933 44.4 29.1467 43.28 29.68C42.9867 29.0933 42.5733 28.4133 42.04 27.64C41.5333 26.8667 40.9733 26.2133 40.36 25.68C42.0133 25.0667 43.72 24.24 45.48 23.2C47.24 22.1333 48.9333 20.96 50.56 19.68C52.2133 18.4 53.6933 17.0933 55 15.76C56.3067 14.4267 57.32 13.1867 58.04 12.04L62.56 12.72C63.4933 14 64.64 15.2533 66 16.48C67.36 17.7067 68.8133 18.8667 70.36 19.96C71.9333 21.0533 73.52 22.0267 75.12 22.88C76.72 23.7333 78.2267 24.4133 79.64 24.92C79.1333 25.48 78.5867 26.1467 78 26.92C77.44 27.6667 76.92 28.4667 76.44 29.32C74.0933 28.3067 71.5867 26.88 68.92 25.04V28.32H62.52V31.48H74.36V35.76H68.4L72.36 37.4C71.8533 38.4667 71.2933 39.5733 70.68 40.72C70.0667 41.84 69.4933 42.8533 68.96 43.76H76.6V47.88H43.04ZM52.4 24.12H67.68C66.2133 23.0267 64.8267 21.88 63.52 20.68C62.2133 19.48 61.1067 18.2667 60.2 17.04C59.3733 18.1067 58.2667 19.2667 56.88 20.52C55.4933 21.7467 54 22.9467 52.4 24.12ZM62.52 43.76H67.6L64.68 42.4C65.0533 41.8133 65.44 41.12 65.84 40.32C66.2667 39.52 66.6667 38.72 67.04 37.92C67.4133 37.0933 67.7333 36.3733 68 35.76H62.52V43.76ZM53 43.76H57.48V35.76H51.4C51.9067 36.3467 52.4267 37.04 52.96 37.84C53.4933 38.6133 54 39.4 54.48 40.2C54.9867 40.9733 55.3867 41.6533 55.68 42.24L53 43.76Z" fill="#F5EFE7"/>
<path d="M112 7L110.801 66H53L112 7Z" fill="#05032B"/>
<path d="M61 56.5979L100.598 16.9999" stroke="#F5EFE7" stroke-width="2"/>
<path d="M100.844 58.363C99.392 58.363 98.083 58.022 96.917 57.34C95.773 56.636 94.86 55.668 94.178 54.436C93.518 53.182 93.188 51.719 93.188 50.047C93.188 48.375 93.518 46.923 94.178 45.691C94.86 44.437 95.773 43.469 96.917 42.787C98.083 42.083 99.392 41.731 100.844 41.731C102.142 41.731 103.319 41.995 104.375 42.523C105.453 43.051 106.333 43.81 107.015 44.8L104.045 46.978C103.363 45.724 102.296 45.097 100.844 45.097C99.7 45.097 98.765 45.526 98.039 46.384C97.313 47.242 96.95 48.463 96.95 50.047C96.95 51.631 97.313 52.852 98.039 53.71C98.765 54.568 99.7 54.997 100.844 54.997C102.274 54.997 103.352 54.381 104.078 53.149L107.015 55.294C106.333 56.262 105.453 57.021 104.375 57.571C103.319 58.099 102.142 58.363 100.844 58.363ZM111.543 58V34.471H115.272V44.008C115.624 43.392 116.152 42.864 116.856 42.424C117.56 41.962 118.407 41.731 119.397 41.731C121.047 41.731 122.389 42.259 123.423 43.315C124.479 44.371 125.007 45.922 125.007 47.968V58H121.278V48.859C121.278 47.605 121.025 46.67 120.519 46.054C120.013 45.416 119.331 45.097 118.473 45.097C117.527 45.097 116.757 45.427 116.163 46.087C115.569 46.725 115.272 47.682 115.272 48.958V58H111.543ZM135.608 58.231C133.892 58.297 132.473 57.923 131.351 57.109C130.251 56.295 129.701 55.118 129.701 53.578C129.701 52.456 130.042 51.499 130.724 50.707C131.406 49.915 132.286 49.299 133.364 48.859C134.442 48.397 135.553 48.155 136.697 48.133C137.269 48.089 137.808 48.133 138.314 48.265C138.82 48.397 139.271 48.584 139.667 48.826V47.44C139.667 46.406 139.447 45.735 139.007 45.427C138.567 45.119 137.918 44.965 137.06 44.965C136.136 44.965 135.157 45.141 134.123 45.493C133.111 45.823 132.242 46.241 131.516 46.747L129.833 43.876C130.735 43.304 131.824 42.809 133.1 42.391C134.376 41.951 135.696 41.731 137.06 41.731C139.106 41.731 140.646 42.149 141.68 42.985C142.714 43.799 143.231 45.284 143.231 47.44V54.733C143.231 55.195 143.33 55.459 143.528 55.525C143.748 55.591 144.232 55.514 144.98 55.294V57.637C144.65 57.791 144.232 57.923 143.726 58.033C143.242 58.165 142.714 58.231 142.142 58.231C141.46 58.231 140.932 58.121 140.558 57.901C140.206 57.659 139.953 57.263 139.799 56.713C139.249 57.175 138.611 57.538 137.885 57.802C137.159 58.044 136.4 58.187 135.608 58.231ZM135.542 54.997C136.774 54.953 137.786 54.711 138.578 54.271C139.392 53.831 139.777 53.204 139.733 52.39C139.711 51.862 139.436 51.499 138.908 51.301C138.402 51.103 137.764 51.026 136.994 51.07C135.916 51.092 135.025 51.367 134.321 51.895C133.617 52.401 133.276 52.973 133.298 53.611C133.342 54.601 134.09 55.063 135.542 54.997ZM149.342 58V42.127H152.708L152.939 44.371C153.335 43.579 153.951 42.941 154.787 42.457C155.645 41.973 156.547 41.731 157.493 41.731C157.867 41.731 158.208 41.753 158.516 41.797C158.824 41.841 159.088 41.896 159.308 41.962V45.559C159.022 45.471 158.681 45.405 158.285 45.361C157.911 45.295 157.471 45.262 156.965 45.262C155.887 45.262 154.963 45.614 154.193 46.318C153.445 47.022 153.071 48.012 153.071 49.288V58H149.342ZM169.764 64.567C168.114 64.567 166.706 64.259 165.54 63.643C164.374 63.027 163.406 62.07 162.636 60.772L165.639 58.792C166.079 59.606 166.629 60.211 167.289 60.607C167.949 61.003 168.774 61.201 169.764 61.201C171.062 61.201 172.019 60.805 172.635 60.013C173.251 59.221 173.559 57.956 173.559 56.218V55.327C172.525 56.405 171.216 56.944 169.632 56.944C168.246 56.944 167.003 56.658 165.903 56.086C164.825 55.492 163.978 54.634 163.362 53.512C162.746 52.368 162.438 50.971 162.438 49.321C162.438 47.649 162.746 46.252 163.362 45.13C163.978 44.008 164.825 43.161 165.903 42.589C167.003 42.017 168.246 41.731 169.632 41.731C171.392 41.731 172.811 42.358 173.889 43.612L174.021 42.127H177.255V56.218C177.255 58.836 176.639 60.882 175.407 62.356C174.197 63.83 172.316 64.567 169.764 64.567ZM169.929 53.677C171.073 53.677 172.008 53.292 172.734 52.522C173.46 51.73 173.823 50.663 173.823 49.321C173.823 47.957 173.46 46.901 172.734 46.153C172.008 45.383 171.073 44.998 169.929 44.998C168.785 44.998 167.872 45.383 167.19 46.153C166.53 46.901 166.2 47.957 166.2 49.321C166.2 50.663 166.53 51.73 167.19 52.522C167.872 53.292 168.785 53.677 169.929 53.677ZM189.56 58.363C187.25 58.363 185.38 57.67 183.95 56.284C182.52 54.876 181.805 52.797 181.805 50.047C181.805 48.331 182.124 46.857 182.762 45.625C183.4 44.371 184.291 43.414 185.435 42.754C186.579 42.072 187.888 41.731 189.362 41.731C190.836 41.731 192.09 42.094 193.124 42.82C194.158 43.524 194.95 44.492 195.5 45.724C196.05 46.956 196.325 48.342 196.325 49.882V50.74H185.468C185.556 52.324 185.974 53.457 186.722 54.139C187.47 54.799 188.438 55.129 189.626 55.129C190.66 55.129 191.507 54.887 192.167 54.403C192.827 53.897 193.399 53.149 193.883 52.159L196.622 54.073C195.808 55.591 194.807 56.691 193.619 57.373C192.453 58.033 191.1 58.363 189.56 58.363ZM185.633 47.869H192.662C192.486 46.835 192.101 46.043 191.507 45.493C190.935 44.921 190.198 44.635 189.296 44.635C188.328 44.635 187.525 44.899 186.887 45.427C186.271 45.955 185.853 46.769 185.633 47.869Z" fill="#F5EFE7"/>
</svg>
