<svg width="618" height="65" viewBox="0 0 618 65" fill="none" xmlns="http://www.w3.org/2000/svg">
<path d="M24.8 49.72C24.7733 49.1333 24.6667 48.4133 24.48 47.56C24.2933 46.7067 24.0933 46.04 23.88 45.56H26.52C27.48 45.56 28.1067 45.44 28.4 45.2C28.6933 44.96 28.92 44.4667 29.08 43.72V43.68H12.52C12.7333 42.56 12.96 41.2533 13.2 39.76C13.4667 38.2667 13.6933 36.7067 13.88 35.08H10.36V31.12H14.36C14.4933 29.8133 14.6133 28.5467 14.72 27.32C14.8267 26.0667 14.8933 24.9067 14.92 23.84C14.28 24.64 13.64 25.36 13 26C12.4933 25.5467 11.88 25.0667 11.16 24.56C10.4667 24.0533 9.78667 23.64 9.12 23.32C10 22.4933 10.92 21.4533 11.88 20.2C12.84 18.92 13.7333 17.56 14.56 16.12C15.3867 14.6533 16.04 13.2267 16.52 11.84L20.88 13.44C20.6933 13.9467 20.48 14.4533 20.24 14.96C20 15.4667 19.76 15.9867 19.52 16.52H37.84V20.52H17.28C17.0133 20.9467 16.7467 21.36 16.48 21.76C16.2133 22.16 15.9333 22.5467 15.64 22.92H34.96C34.96 24.3067 34.9333 25.6933 34.88 27.08C34.8533 28.4667 34.8133 29.8133 34.76 31.12H38.6V35.08H34.56C34.5067 35.9067 34.44 36.72 34.36 37.52C34.3067 38.32 34.2533 39.0667 34.2 39.76H38.16V43.68H33.72C33.6667 43.9467 33.6133 44.2133 33.56 44.48C33.5333 44.72 33.4933 44.9467 33.44 45.16C33.0933 46.8133 32.4 47.9867 31.36 48.68C30.3467 49.3733 29 49.72 27.32 49.72H24.8ZM5.2 48.6L1.08 45.8C1.85333 44.7067 2.64 43.4267 3.44 41.96C4.26667 40.4667 5.01333 38.96 5.68 37.44C6.34667 35.92 6.85333 34.5467 7.2 33.32C7.41333 33.56 7.74667 33.8667 8.2 34.24C8.68 34.5867 9.18667 34.9333 9.72 35.28C10.2533 35.6 10.6933 35.8667 11.04 36.08C10.6933 37.3333 10.1867 38.7333 9.52 40.28C8.85333 41.8 8.13333 43.2933 7.36 44.76C6.61333 46.2267 5.89333 47.5067 5.2 48.6ZM7.64 30.72C7.18667 30.2667 6.54667 29.76 5.72 29.2C4.92 28.64 4.08 28.1067 3.2 27.6C2.32 27.0667 1.53333 26.6533 0.84 26.36L3.2 22.52C4.37333 23.08 5.61333 23.7333 6.92 24.48C8.25333 25.2267 9.37333 25.9867 10.28 26.76C9.88 27.2667 9.4 27.92 8.84 28.72C8.30667 29.52 7.90667 30.1867 7.64 30.72ZM8.84 21.08C8.36 20.6533 7.70667 20.16 6.88 19.6C6.08 19.04 5.24 18.5067 4.36 18C3.48 17.4667 2.69333 17.0533 2 16.76L4.4 13C5.12 13.2933 5.93333 13.6933 6.84 14.2C7.74667 14.7067 8.62667 15.2267 9.48 15.76C10.3333 16.2933 11.0133 16.7867 11.52 17.24C11.3067 17.48 11.0133 17.8533 10.64 18.36C10.2667 18.8667 9.90667 19.3733 9.56 19.88C9.24 20.3867 9 20.7867 8.84 21.08ZM25.84 39.76H29.64C29.6933 39.0667 29.76 38.32 29.84 37.52C29.92 36.72 29.9733 35.9067 30 35.08H26.36C26.28 35.9867 26.2 36.84 26.12 37.64C26.04 38.44 25.9467 39.1467 25.84 39.76ZM17.76 39.76H21.28C21.3867 39.1467 21.48 38.44 21.56 37.64C21.6667 36.84 21.7733 35.9867 21.88 35.08H18.36C18.2533 35.9867 18.1467 36.84 18.04 37.64C17.9333 38.44 17.84 39.1467 17.76 39.76ZM26.68 31.12H30.24C30.2667 30.3733 30.28 29.64 30.28 28.92C30.3067 28.2 30.3333 27.52 30.36 26.88H26.88C26.8533 27.5467 26.8267 28.24 26.8 28.96C26.7733 29.6533 26.7333 30.3733 26.68 31.12ZM18.76 31.12H22.24C22.2933 30.32 22.3333 29.56 22.36 28.84C22.4133 28.12 22.4533 27.4667 22.48 26.88H19.08C19.0533 27.44 19.0133 28.0933 18.96 28.84C18.9067 29.56 18.84 30.32 18.76 31.12ZM62.2 49.2V41.96C60.8667 43.1867 59.2933 44.36 57.48 45.48C55.6933 46.5733 53.8267 47.5467 51.88 48.4C51.6667 47.8667 51.3333 47.2533 50.88 46.56C50.4533 45.8667 50.0133 45.2533 49.56 44.72C51.1333 44.1867 52.7467 43.5067 54.4 42.68C56.0533 41.8533 57.5733 40.9867 58.96 40.08H51.48V36.68H62.2V35.24H52.28V28.44H63.4V34.2H65.32V28.44H76.6V35.24H66.2V36.68H77.88V40.08H69.44C70.8267 40.9867 72.3467 41.8533 74 42.68C75.6533 43.5067 77.2533 44.1867 78.8 44.72C78.3467 45.2533 77.9067 45.8667 77.48 46.56C77.0533 47.2533 76.72 47.8667 76.48 48.4C74.56 47.5467 72.6933 46.5733 70.88 45.48C69.0933 44.36 67.5333 43.2 66.2 42V49.2H62.2ZM52.2 19.76V17.84H42.04V14.32H52.2V12.2H56.6V14.32H63.48V12.2H67.88V14.32H77.96V17.84H67.88V19.76H63.48V17.84H56.6V19.76H52.2ZM56.48 27.4V20.48H72.36V27.4H56.48ZM45.4 48.64L41.4 46.64C41.8533 46.0533 42.36 45.32 42.92 44.44C43.48 43.5333 44.0533 42.5733 44.64 41.56C45.2267 40.5467 45.76 39.5467 46.24 38.56C46.7467 37.5733 47.16 36.7067 47.48 35.96C47.72 36.1467 48.04 36.4133 48.44 36.76C48.84 37.1067 49.2533 37.4533 49.68 37.8C50.1067 38.1467 50.4667 38.4267 50.76 38.64C50.36 39.6533 49.8533 40.7467 49.24 41.92C48.6533 43.0667 48.0267 44.2267 47.36 45.4C46.6933 46.5467 46.04 47.6267 45.4 48.64ZM48.44 34.24C47.88 33.8667 47.2 33.4533 46.4 33C45.6 32.5467 44.7867 32.1333 43.96 31.76C43.16 31.36 42.44 31.0533 41.8 30.84L43.6 27.36C44.32 27.6 45.08 27.92 45.88 28.32C46.7067 28.6933 47.5067 29.08 48.28 29.48C49.08 29.88 49.76 30.2667 50.32 30.64C50.0533 31.0933 49.72 31.6933 49.32 32.44C48.92 33.1867 48.6267 33.7867 48.44 34.24ZM50.64 26.88C50.1067 26.4533 49.4533 26 48.68 25.52C47.9067 25.04 47.12 24.5867 46.32 24.16C45.52 23.7333 44.8133 23.4 44.2 23.16L46.24 19.76C47.28 20.1867 48.4133 20.76 49.64 21.48C50.8933 22.1733 51.9333 22.8133 52.76 23.4C52.4133 23.8267 52.0267 24.4 51.6 25.12C51.1733 25.84 50.8533 26.4267 50.64 26.88ZM60.52 24.64H68.32V23.28H60.52V24.64ZM69.24 32.56H72.68V31.16H69.24V32.56ZM56.24 32.56H59.48V31.16H56.24V32.56ZM94.36 49.04C94.28 48.3733 94.16 47.56 94 46.6C93.8667 45.6667 93.6933 44.8933 93.48 44.28H96.56C97.12 44.28 97.52 44.2 97.76 44.04C98.0267 43.8533 98.16 43.4933 98.16 42.96V12.44H102.72V20C103.013 21.04 103.347 22.08 103.72 23.12C104.093 24.1333 104.52 25.1333 105 26.12C106.413 24.9467 107.867 23.64 109.36 22.2C110.853 20.7333 112.16 19.36 113.28 18.08L116.84 21.16C116.013 22.0133 115.067 22.9467 114 23.96C112.933 24.9733 111.8 25.9867 110.6 27C109.427 28.0133 108.267 28.9733 107.12 29.88C108.613 32.1733 110.347 34.2933 112.32 36.24C114.293 38.1867 116.427 39.88 118.72 41.32C118.107 41.7467 117.467 42.3467 116.8 43.12C116.16 43.8933 115.653 44.5733 115.28 45.16C112.8 43.5067 110.48 41.3867 108.32 38.8C106.16 36.1867 104.293 33.36 102.72 30.32V44.72C102.72 47.6 101.013 49.04 97.6 49.04H94.36ZM84.68 45.52C84.1467 44.9067 83.5867 44.32 83 43.76C82.44 43.1733 81.84 42.68 81.2 42.28C83.0933 40.92 84.76 39.3467 86.2 37.56C87.6667 35.7733 88.8533 33.8933 89.76 31.92C90.6933 29.9467 91.2933 28.0133 91.56 26.12H82.68V21.8H96.44C96.2533 27.1067 95.0933 31.76 92.96 35.76C90.8267 39.7333 88.0667 42.9867 84.68 45.52ZM127.72 48.72C127.693 48.3733 127.627 47.9333 127.52 47.4C127.44 46.8667 127.347 46.3333 127.24 45.8C127.133 45.2667 127.013 44.8533 126.88 44.56H128.8C129.493 44.56 130 44.4 130.32 44.08C130.64 43.76 130.893 43.16 131.08 42.28C131.213 41.6933 131.32 40.92 131.4 39.96C131.507 39 131.6 37.9867 131.68 36.92C131.787 35.8533 131.853 34.84 131.88 33.88C131.933 32.8933 131.96 32.0933 131.96 31.48H129.8C129.613 33.56 129.293 35.68 128.84 37.84C128.387 39.9733 127.8 41.9733 127.08 43.84C126.36 45.7067 125.48 47.28 124.44 48.56C123.933 48.1067 123.267 47.6667 122.44 47.24C121.64 46.8133 120.96 46.52 120.4 46.36C122.213 44.2267 123.507 41.6 124.28 38.48C125.053 35.3333 125.44 31.48 125.44 26.92V23.16H121.8V19.08H127.28V12.44H131.84V19.08H136.84V22.16C137.427 21.0933 137.973 19.96 138.48 18.76C139.013 17.56 139.453 16.3867 139.8 15.24C140.173 14.0933 140.427 13.0667 140.56 12.16L145.16 13.04C145 13.7867 144.813 14.52 144.6 15.24C144.387 15.96 144.147 16.68 143.88 17.4H157.28V21.32H142.24C141.093 23.6933 139.787 25.8533 138.32 27.8C137.893 27.4267 137.293 27.0133 136.52 26.56C135.773 26.08 135.093 25.7467 134.48 25.56C134.773 25.2667 135.067 24.92 135.36 24.52C135.68 24.0933 135.973 23.64 136.24 23.16H130.04V27.36H136.24C136.24 28.5067 136.227 29.8667 136.2 31.44C136.173 32.9867 136.12 34.5867 136.04 36.24C135.96 37.8667 135.853 39.3867 135.72 40.8C135.613 42.1867 135.453 43.2933 135.24 44.12C134.813 45.8 134.147 46.9867 133.24 47.68C132.36 48.3733 131.067 48.72 129.36 48.72H127.72ZM137.88 49.28C137.613 48.72 137.267 48.0933 136.84 47.4C136.413 46.7067 135.933 46.1067 135.4 45.6C140.36 44.32 143.507 41.7867 144.84 38H137.48V34.2H140.96C140.747 33.9867 140.413 33.72 139.96 33.4C139.507 33.08 139.04 32.7733 138.56 32.48C138.107 32.1867 137.72 31.9733 137.4 31.84C138.173 31.12 138.947 30.1867 139.72 29.04C140.52 27.8933 141.227 26.72 141.84 25.52C142.48 24.2933 142.933 23.2133 143.2 22.28L147.4 23.56C147.24 23.9867 147.067 24.4267 146.88 24.88C146.693 25.3333 146.493 25.7867 146.28 26.24H156V30.08H149.88V34.2H157.96V38H149.76C150.32 39.0933 151.08 40.1333 152.04 41.12C153.027 42.1067 154.107 42.9867 155.28 43.76C156.48 44.5067 157.68 45.12 158.88 45.6C158.667 45.84 158.347 46.1867 157.92 46.64C157.52 47.0933 157.133 47.56 156.76 48.04C156.387 48.5467 156.12 48.96 155.96 49.28C154.333 48.5867 152.787 47.5733 151.32 46.24C149.853 44.9333 148.627 43.4267 147.64 41.72C146.573 43.4267 145.2 44.9333 143.52 46.24C141.84 47.5467 139.96 48.56 137.88 49.28ZM141.08 34.2H145.48V30.08H144.24C143.76 30.8267 143.253 31.56 142.72 32.28C142.187 32.9733 141.64 33.6133 141.08 34.2ZM162.44 48.68L161.12 44.52C161.493 44.4667 161.96 44.3867 162.52 44.28C163.08 44.1733 163.693 44.04 164.36 43.88V23.88C164.147 24.0667 163.92 24.2533 163.68 24.44C163.44 24.6 163.2 24.76 162.96 24.92C162.693 24.4133 162.267 23.8267 161.68 23.16C161.12 22.4933 160.64 22 160.24 21.68C161.04 21.2 161.88 20.5867 162.76 19.84C163.667 19.0933 164.547 18.28 165.4 17.4C166.253 16.52 167.027 15.6267 167.72 14.72C168.44 13.8133 169 12.9733 169.4 12.2L173.44 13.36C173.733 13.8133 174.2 14.36 174.84 15C175.507 15.6133 176.24 16.24 177.04 16.88C177.84 17.52 178.573 18.08 179.24 18.56V16.72H186.12V12.64H190.72V16.72H197.8V25.76H195.36V34.48H185.64V37.2H196.64V48.44H181.24V25.76H179.24V19.88C178.867 20.3067 178.493 20.76 178.12 21.24C177.747 21.72 177.467 22.12 177.28 22.44C176.72 22.0133 176.053 21.4667 175.28 20.8C174.507 20.1067 173.747 19.4 173 18.68C172.28 17.9333 171.693 17.28 171.24 16.72C170.44 17.84 169.48 19 168.36 20.2C167.267 21.3733 166.133 22.44 164.96 23.4H169.12V19.56H173.24V23.4H178V37.6H174.68C175.693 38.8267 176.667 40.2133 177.6 41.76C178.533 43.3067 179.32 44.76 179.96 46.12C179.4 46.3333 178.76 46.64 178.04 47.04C177.347 47.44 176.72 47.8267 176.16 48.2C176 47.7467 175.8 47.2667 175.56 46.76C175.347 46.2533 175.093 45.7333 174.8 45.2C173.573 45.6267 172.213 46.0533 170.72 46.48C169.253 46.9333 167.787 47.3467 166.32 47.72C164.88 48.0933 163.587 48.4133 162.44 48.68ZM183.48 23.32H193.56V20.44H183.48V23.32ZM185.64 44.4H192.24V40.92H185.64V44.4ZM174.68 37.6H168.6V42.88C169.347 42.6933 170.08 42.5067 170.8 42.32C171.52 42.1067 172.2 41.9067 172.84 41.72C172.547 41.2667 172.253 40.8533 171.96 40.48C171.693 40.08 171.44 39.7333 171.2 39.44L174.68 37.6ZM185.64 30.56H191V27.16H185.64V30.56ZM168.6 34H173.76V31.84H168.6V34ZM168.6 29.08H173.76V27H168.6V29.08ZM223.08 46.36C222.973 45.9333 222.773 45.4267 222.48 44.84C222.187 44.2533 221.84 43.6933 221.44 43.16C221.067 42.6 220.693 42.1467 220.32 41.8C223.973 41.24 226.747 40.0533 228.64 38.24C230.56 36.4 231.573 34.24 231.68 31.76C231.787 29.7867 231.427 28.0267 230.6 26.48C229.773 24.9333 228.64 23.68 227.2 22.72C225.787 21.76 224.227 21.1867 222.52 21C222.307 23.48 221.907 26.0133 221.32 28.6C220.733 31.1867 219.933 33.6133 218.92 35.88C217.933 38.1467 216.72 40.0667 215.28 41.64C214.187 42.8133 213.12 43.4933 212.08 43.68C211.067 43.8667 209.987 43.72 208.84 43.24C207.72 42.76 206.733 42 205.88 40.96C205.027 39.92 204.373 38.6933 203.92 37.28C203.467 35.84 203.28 34.3067 203.36 32.68C203.493 30.2533 204.067 28.04 205.08 26.04C206.093 24.0133 207.453 22.2667 209.16 20.8C210.867 19.3333 212.827 18.2267 215.04 17.48C217.253 16.7333 219.613 16.4267 222.12 16.56C224.147 16.6667 226.053 17.12 227.84 17.92C229.627 18.72 231.187 19.8267 232.52 21.24C233.88 22.6267 234.92 24.24 235.64 26.08C236.387 27.92 236.693 29.9333 236.56 32.12C236.373 35.7733 235.093 38.84 232.72 41.32C230.347 43.7733 227.133 45.4533 223.08 46.36ZM210.08 38.28C210.373 38.4933 210.68 38.6 211 38.6C211.32 38.6 211.64 38.44 211.96 38.12C212.92 37.16 213.8 35.8 214.6 34.04C215.427 32.28 216.107 30.2933 216.64 28.08C217.2 25.8667 217.56 23.6133 217.72 21.32C215.88 21.7467 214.24 22.52 212.8 23.64C211.387 24.76 210.267 26.12 209.44 27.72C208.613 29.2933 208.147 31.0267 208.04 32.92C207.987 34.1733 208.147 35.2667 208.52 36.2C208.92 37.1067 209.44 37.8 210.08 38.28ZM257.56 49V39.76C256.387 40.88 255.013 41.9867 253.44 43.08C251.893 44.1733 250.307 45.16 248.68 46.04C247.053 46.92 245.56 47.6267 244.2 48.16C243.933 47.5467 243.547 46.8933 243.04 46.2C242.56 45.5067 242.053 44.92 241.52 44.44C242.747 44.04 244.093 43.4933 245.56 42.8C247.053 42.1067 248.52 41.32 249.96 40.44C251.427 39.5333 252.733 38.6133 253.88 37.68H242.08V33.84H257.56V32H252.68V15.96H256.48C256.72 15.5067 256.987 14.8933 257.28 14.12C257.6 13.3467 257.853 12.6 258.04 11.88L262.96 12.64C262.88 12.9067 262.68 13.3867 262.36 14.08C262.04 14.7467 261.733 15.3733 261.44 15.96H267.28V32H262.4V33.84H278.04V37.68H266.2C267.347 38.5867 268.627 39.48 270.04 40.36C271.48 41.2133 272.933 41.9867 274.4 42.68C275.867 43.3733 277.227 43.92 278.48 44.32C277.973 44.8 277.467 45.4 276.96 46.12C276.453 46.8667 276.067 47.5467 275.8 48.16C274.44 47.6267 272.933 46.92 271.28 46.04C269.653 45.16 268.053 44.1733 266.48 43.08C264.933 41.9867 263.573 40.8533 262.4 39.68V49H257.56ZM275.08 32.8C274.52 32.2133 273.76 31.5467 272.8 30.8C271.84 30.0267 270.867 29.2933 269.88 28.6C268.893 27.88 268.053 27.3333 267.36 26.96L270.04 23.52C270.6 23.8667 271.24 24.2933 271.96 24.8C272.707 25.3067 273.467 25.84 274.24 26.4C275.013 26.96 275.733 27.5067 276.4 28.04C277.093 28.5733 277.64 29.04 278.04 29.44C277.747 29.7067 277.4 30.0533 277 30.48C276.6 30.88 276.227 31.2933 275.88 31.72C275.533 32.1467 275.267 32.5067 275.08 32.8ZM243.8 32.68L241.76 28.8C242.373 28.56 243.093 28.24 243.92 27.84C244.773 27.4133 245.64 26.96 246.52 26.48C247.427 25.9733 248.28 25.4667 249.08 24.96C249.907 24.4533 250.6 23.9867 251.16 23.56C251.213 23.9067 251.28 24.36 251.36 24.92C251.467 25.4533 251.573 25.9867 251.68 26.52C251.787 27.0533 251.867 27.4933 251.92 27.84C251.2 28.3467 250.32 28.92 249.28 29.56C248.267 30.1733 247.267 30.76 246.28 31.32C245.293 31.88 244.467 32.3333 243.8 32.68ZM270.6 22.52C270.44 22.2533 270.16 21.92 269.76 21.52C269.36 21.0933 268.947 20.6933 268.52 20.32C268.12 19.92 267.773 19.6267 267.48 19.44C268.04 19.0133 268.707 18.4533 269.48 17.76C270.253 17.0667 271.013 16.3467 271.76 15.6C272.507 14.8267 273.107 14.16 273.56 13.6L277.08 16.28C276.6 16.8933 275.973 17.5867 275.2 18.36C274.427 19.1333 273.627 19.8933 272.8 20.64C272 21.36 271.267 21.9867 270.6 22.52ZM248.4 23.12C247.973 22.5333 247.413 21.8667 246.72 21.12C246.053 20.3467 245.347 19.6 244.6 18.88C243.88 18.1333 243.187 17.52 242.52 17.04L245.72 14.12C246.36 14.6 247.067 15.2267 247.84 16C248.64 16.7733 249.4 17.5467 250.12 18.32C250.84 19.0667 251.4 19.6933 251.8 20.2C251.507 20.3867 251.133 20.6667 250.68 21.04C250.253 21.3867 249.827 21.7467 249.4 22.12C249 22.4933 248.667 22.8267 248.4 23.12ZM257.16 28.24H262.76V25.52H257.16V28.24ZM257.16 22.32H262.76V19.68H257.16V22.32ZM298.8 47.24C296.667 47.24 294.933 47.0267 293.6 46.6C292.293 46.1733 291.333 45.4533 290.72 44.44C290.133 43.4267 289.84 42.0533 289.84 40.32V13.88L295.08 14.2C295.027 14.6533 294.973 15.4133 294.92 16.48C294.867 17.5467 294.827 18.6933 294.8 19.92C294.773 20.9067 294.747 21.9867 294.72 23.16C294.72 24.3333 294.72 25.6267 294.72 27.04V39.36C294.72 40.5333 295.04 41.3333 295.68 41.76C296.347 42.1867 297.493 42.4 299.12 42.4C301.733 42.4 304.2 41.9067 306.52 40.92C308.867 39.9333 310.893 38.7067 312.6 37.24C312.627 37.7467 312.68 38.36 312.76 39.08C312.867 39.7733 312.973 40.44 313.08 41.08C313.213 41.6933 313.32 42.1733 313.4 42.52C311.48 43.9067 309.24 45.04 306.68 45.92C304.147 46.8 301.52 47.24 298.8 47.24ZM340.52 48.44C340.093 47.9867 339.467 47.4933 338.64 46.96C337.84 46.4533 337.133 46.08 336.52 45.84C338.413 44.5333 340.12 42.9067 341.64 40.96C343.187 38.9867 344.453 36.8667 345.44 34.6C344.293 34.2533 343.133 33.9733 341.96 33.76C340.787 33.52 339.64 33.3467 338.52 33.24C337.827 34.5467 337.107 35.7467 336.36 36.84C335.64 37.9067 334.907 38.8133 334.16 39.56C333.04 40.7067 331.813 41.5067 330.48 41.96C329.173 42.4133 327.907 42.5467 326.68 42.36C325.48 42.1467 324.493 41.6267 323.72 40.8C322.947 39.9733 322.56 38.8667 322.56 37.48C322.56 35.9333 323.067 34.52 324.08 33.24C325.093 31.96 326.56 30.9333 328.48 30.16C330.427 29.3867 332.8 28.9733 335.6 28.92C336.32 27.4 337.013 25.7867 337.68 24.08C338.347 22.3733 338.947 20.68 339.48 19C338.493 19.2667 337.453 19.5333 336.36 19.8C335.293 20.04 334.28 20.2533 333.32 20.44C332.387 20.6267 331.613 20.76 331 20.84L329.72 16.24C330.413 16.2133 331.307 16.1333 332.4 16C333.493 15.8667 334.64 15.6933 335.84 15.48C337.067 15.2667 338.213 15.04 339.28 14.8C340.373 14.56 341.24 14.32 341.88 14.08L345.24 15.88C344.787 17.7467 344.147 19.8667 343.32 22.24C342.493 24.6133 341.547 26.9467 340.48 29.24C341.493 29.3733 342.52 29.5467 343.56 29.76C344.627 29.9733 345.707 30.2267 346.8 30.52C347.04 29.5867 347.227 28.6667 347.36 27.76C347.493 26.8267 347.573 25.9067 347.6 25L352.36 26.16C352.227 28.0267 351.907 29.92 351.4 31.84C352.467 32.1867 353.507 32.56 354.52 32.96C355.56 33.36 356.547 33.7867 357.48 34.24C357.213 34.56 356.92 34.9867 356.6 35.52C356.28 36.0533 355.987 36.6133 355.72 37.2C355.48 37.76 355.28 38.2533 355.12 38.68C354.293 38.2267 353.44 37.7867 352.56 37.36C351.707 36.9067 350.827 36.5067 349.92 36.16C348.88 38.5867 347.56 40.88 345.96 43.04C344.36 45.1733 342.547 46.9733 340.52 48.44ZM326.76 36.92C326.813 37.2667 327.04 37.5467 327.44 37.76C327.84 37.9467 328.333 37.9733 328.92 37.84C329.533 37.7067 330.187 37.3067 330.88 36.64C331.253 36.2667 331.653 35.7867 332.08 35.2C332.507 34.6133 332.933 33.9467 333.36 33.2C331.093 33.44 329.4 33.9333 328.28 34.68C327.16 35.4 326.653 36.1467 326.76 36.92ZM364 49.12C363.813 48.7467 363.56 48.3067 363.24 47.8C362.92 47.2933 362.573 46.7867 362.2 46.28C361.827 45.7733 361.453 45.3733 361.08 45.08C365.773 43.32 369.347 40.64 371.8 37.04C374.28 33.44 375.613 28.7733 375.8 23.04H361.6V18.6H376.8V12.52H382.04V18.6H397.36V23.04H380.88C380.853 23.76 380.813 24.4667 380.76 25.16C380.707 25.8533 380.64 26.5467 380.56 27.24H393.4C393.373 28.5467 393.293 29.9733 393.16 31.52C393.053 33.0667 392.893 34.6133 392.68 36.16C392.493 37.68 392.28 39.0933 392.04 40.4C391.8 41.68 391.547 42.72 391.28 43.52C390.827 44.9067 390.28 45.9733 389.64 46.72C389 47.4667 388.2 47.9733 387.24 48.24C386.307 48.5333 385.147 48.68 383.76 48.68H379.8C379.773 48.2267 379.693 47.6667 379.56 47C379.453 46.36 379.32 45.7333 379.16 45.12C379.027 44.48 378.88 43.9867 378.72 43.64H382.76C383.853 43.64 384.667 43.48 385.2 43.16C385.733 42.8133 386.133 42.2133 386.4 41.36C386.64 40.6667 386.867 39.7467 387.08 38.6C387.293 37.4267 387.48 36.2267 387.64 35C387.8 33.7467 387.88 32.6667 387.88 31.76H379.64C378.573 35.7333 376.76 39.16 374.2 42.04C371.667 44.92 368.267 47.28 364 49.12Z" fill="#F5EFE7"/>
<path d="M430 5L428.801 64H371L430 5Z" fill="#05032B"/>
<path d="M379 54.598L418.598 15" stroke="#F5EFE7" stroke-width="2"/>
<path d="M422.013 55V31.471H425.742V41.008C426.094 40.392 426.622 39.864 427.326 39.424C428.03 38.962 428.877 38.731 429.867 38.731C431.517 38.731 432.859 39.259 433.893 40.315C434.949 41.371 435.477 42.922 435.477 44.968V55H431.748V45.859C431.748 44.605 431.495 43.67 430.989 43.054C430.483 42.416 429.801 42.097 428.943 42.097C427.997 42.097 427.227 42.427 426.633 43.087C426.039 43.725 425.742 44.682 425.742 45.958V55H422.013ZM447.695 55.363C446.243 55.363 444.934 55.022 443.768 54.34C442.624 53.636 441.711 52.668 441.029 51.436C440.369 50.182 440.039 48.719 440.039 47.047C440.039 45.375 440.369 43.923 441.029 42.691C441.711 41.437 442.624 40.469 443.768 39.787C444.934 39.083 446.243 38.731 447.695 38.731C449.191 38.731 450.511 39.083 451.655 39.787C452.821 40.469 453.734 41.437 454.394 42.691C455.054 43.923 455.384 45.375 455.384 47.047C455.384 48.719 455.054 50.182 454.394 51.436C453.734 52.668 452.821 53.636 451.655 54.34C450.511 55.022 449.191 55.363 447.695 55.363ZM447.695 51.997C448.861 51.997 449.807 51.568 450.533 50.71C451.281 49.852 451.655 48.631 451.655 47.047C451.655 45.463 451.281 44.242 450.533 43.384C449.807 42.526 448.861 42.097 447.695 42.097C446.551 42.097 445.616 42.526 444.89 43.384C444.164 44.242 443.801 45.463 443.801 47.047C443.801 48.631 444.164 49.852 444.89 50.71C445.616 51.568 446.551 51.997 447.695 51.997ZM462.498 55L457.911 39.127H461.442L464.247 49.72L467.052 39.127H470.154L472.926 49.72L475.764 39.127H479.295L474.675 55H471.441L468.603 44.308L465.699 55H462.498ZM500.31 55.363C498.748 55.363 497.549 55.077 496.713 54.505C495.899 53.933 495.492 52.789 495.492 51.073V42.328H492.456V39.127H495.492V33.55H499.188V39.127H503.577V42.328H499.188V50.116C499.188 50.864 499.364 51.37 499.716 51.634C500.09 51.898 500.618 52.03 501.3 52.03C501.718 52.03 502.136 51.964 502.554 51.832C502.994 51.7 503.335 51.568 503.577 51.436V54.835C503.181 54.989 502.686 55.11 502.092 55.198C501.498 55.308 500.904 55.363 500.31 55.363ZM514.657 55.363C513.205 55.363 511.896 55.022 510.73 54.34C509.586 53.636 508.673 52.668 507.991 51.436C507.331 50.182 507.001 48.719 507.001 47.047C507.001 45.375 507.331 43.923 507.991 42.691C508.673 41.437 509.586 40.469 510.73 39.787C511.896 39.083 513.205 38.731 514.657 38.731C516.153 38.731 517.473 39.083 518.617 39.787C519.783 40.469 520.696 41.437 521.356 42.691C522.016 43.923 522.346 45.375 522.346 47.047C522.346 48.719 522.016 50.182 521.356 51.436C520.696 52.668 519.783 53.636 518.617 54.34C517.473 55.022 516.153 55.363 514.657 55.363ZM514.657 51.997C515.823 51.997 516.769 51.568 517.495 50.71C518.243 49.852 518.617 48.631 518.617 47.047C518.617 45.463 518.243 44.242 517.495 43.384C516.769 42.526 515.823 42.097 514.657 42.097C513.513 42.097 512.578 42.526 511.852 43.384C511.126 44.242 510.763 45.463 510.763 47.047C510.763 48.631 511.126 49.852 511.852 50.71C512.578 51.568 513.513 51.997 514.657 51.997ZM544.37 55.363C542.06 55.363 540.19 54.67 538.76 53.284C537.33 51.876 536.615 49.797 536.615 47.047C536.615 45.331 536.934 43.857 537.572 42.625C538.21 41.371 539.101 40.414 540.245 39.754C541.389 39.072 542.698 38.731 544.172 38.731C545.646 38.731 546.9 39.094 547.934 39.82C548.968 40.524 549.76 41.492 550.31 42.724C550.86 43.956 551.135 45.342 551.135 46.882V47.74H540.278C540.366 49.324 540.784 50.457 541.532 51.139C542.28 51.799 543.248 52.129 544.436 52.129C545.47 52.129 546.317 51.887 546.977 51.403C547.637 50.897 548.209 50.149 548.693 49.159L551.432 51.073C550.618 52.591 549.617 53.691 548.429 54.373C547.263 55.033 545.91 55.363 544.37 55.363ZM540.443 44.869H547.472C547.296 43.835 546.911 43.043 546.317 42.493C545.745 41.921 545.008 41.635 544.106 41.635C543.138 41.635 542.335 41.899 541.697 42.427C541.081 42.955 540.663 43.769 540.443 44.869ZM555.969 55V39.127H559.302L559.5 41.008C559.94 40.392 560.523 39.864 561.249 39.424C561.975 38.962 562.833 38.731 563.823 38.731C565.473 38.731 566.815 39.259 567.849 40.315C568.905 41.371 569.433 42.922 569.433 44.968V55H565.704V45.859C565.704 44.605 565.451 43.67 564.945 43.054C564.439 42.416 563.757 42.097 562.899 42.097C561.953 42.097 561.183 42.427 560.589 43.087C559.995 43.725 559.698 44.682 559.698 45.958V55H555.969ZM573.533 61.567C573.005 61.567 572.466 61.534 571.916 61.468C571.366 61.402 570.937 61.325 570.629 61.237V57.607C571.003 57.717 571.366 57.794 571.718 57.838C572.048 57.882 572.389 57.904 572.741 57.904C573.665 57.904 574.281 57.717 574.589 57.343C574.897 56.991 575.051 56.364 575.051 55.462V39.127H578.747V55.462C578.747 57.64 578.34 59.202 577.526 60.148C576.712 61.094 575.381 61.567 573.533 61.567ZM576.899 36.52C576.239 36.52 575.678 36.289 575.216 35.827C574.776 35.365 574.556 34.815 574.556 34.177C574.556 33.539 574.776 32.989 575.216 32.527C575.678 32.065 576.239 31.834 576.899 31.834C577.537 31.834 578.076 32.065 578.516 32.527C578.956 32.989 579.176 33.539 579.176 34.177C579.176 34.815 578.956 35.365 578.516 35.827C578.076 36.289 577.537 36.52 576.899 36.52ZM591.414 55.363C589.962 55.363 588.653 55.022 587.487 54.34C586.343 53.636 585.43 52.668 584.748 51.436C584.088 50.182 583.758 48.719 583.758 47.047C583.758 45.375 584.088 43.923 584.748 42.691C585.43 41.437 586.343 40.469 587.487 39.787C588.653 39.083 589.962 38.731 591.414 38.731C592.91 38.731 594.23 39.083 595.374 39.787C596.54 40.469 597.453 41.437 598.113 42.691C598.773 43.923 599.103 45.375 599.103 47.047C599.103 48.719 598.773 50.182 598.113 51.436C597.453 52.668 596.54 53.636 595.374 54.34C594.23 55.022 592.91 55.363 591.414 55.363ZM591.414 51.997C592.58 51.997 593.526 51.568 594.252 50.71C595 49.852 595.374 48.631 595.374 47.047C595.374 45.463 595 44.242 594.252 43.384C593.526 42.526 592.58 42.097 591.414 42.097C590.27 42.097 589.335 42.526 588.609 43.384C587.883 44.242 587.52 45.463 587.52 47.047C587.52 48.631 587.883 49.852 588.609 50.71C589.335 51.568 590.27 51.997 591.414 51.997ZM604.963 61.567C604.435 61.567 603.94 61.545 603.478 61.501C603.016 61.479 602.598 61.424 602.224 61.336V57.937C602.598 58.025 602.983 58.091 603.379 58.135C603.797 58.201 604.193 58.234 604.567 58.234C605.161 58.234 605.601 58.168 605.887 58.036C606.195 57.904 606.437 57.684 606.613 57.376C606.789 57.068 606.987 56.65 607.207 56.122L607.636 54.967L601.366 39.127H605.227L609.253 50.512L613.048 39.127H616.843L610.375 57.211C609.847 58.663 609.198 59.752 608.428 60.478C607.68 61.204 606.525 61.567 604.963 61.567Z" fill="#F5EFE7"/>
</svg>
