<svg width="399" height="66" viewBox="0 0 399 66" fill="none" xmlns="http://www.w3.org/2000/svg">
<path d="M2.44 48.68L1.12 44.52C1.49333 44.4667 1.96 44.3867 2.52 44.28C3.08 44.1733 3.69333 44.04 4.36 43.88V23.88C4.14667 24.0667 3.92 24.2533 3.68 24.44C3.44 24.6 3.2 24.76 2.96 24.92C2.69333 24.4133 2.26667 23.8267 1.68 23.16C1.12 22.4933 0.64 22 0.24 21.68C1.04 21.2 1.88 20.5867 2.76 19.84C3.66667 19.0933 4.54667 18.28 5.4 17.4C6.25333 16.52 7.02667 15.6267 7.72 14.72C8.44 13.8133 9 12.9733 9.4 12.2L13.44 13.36C13.7333 13.8133 14.2 14.36 14.84 15C15.5067 15.6133 16.24 16.24 17.04 16.88C17.84 17.52 18.5733 18.08 19.24 18.56V16.72H26.12V12.64H30.72V16.72H37.8V25.76H35.36V34.48H25.64V37.2H36.64V48.44H21.24V25.76H19.24V19.88C18.8667 20.3067 18.4933 20.76 18.12 21.24C17.7467 21.72 17.4667 22.12 17.28 22.44C16.72 22.0133 16.0533 21.4667 15.28 20.8C14.5067 20.1067 13.7467 19.4 13 18.68C12.28 17.9333 11.6933 17.28 11.24 16.72C10.44 17.84 9.48 19 8.36 20.2C7.26667 21.3733 6.13333 22.44 4.96 23.4H9.12V19.56H13.24V23.4H18V37.6H14.68C15.6933 38.8267 16.6667 40.2133 17.6 41.76C18.5333 43.3067 19.32 44.76 19.96 46.12C19.4 46.3333 18.76 46.64 18.04 47.04C17.3467 47.44 16.72 47.8267 16.16 48.2C16 47.7467 15.8 47.2667 15.56 46.76C15.3467 46.2533 15.0933 45.7333 14.8 45.2C13.5733 45.6267 12.2133 46.0533 10.72 46.48C9.25333 46.9333 7.78667 47.3467 6.32 47.72C4.88 48.0933 3.58667 48.4133 2.44 48.68ZM23.48 23.32H33.56V20.44H23.48V23.32ZM25.64 44.4H32.24V40.92H25.64V44.4ZM14.68 37.6H8.6V42.88C9.34667 42.6933 10.08 42.5067 10.8 42.32C11.52 42.1067 12.2 41.9067 12.84 41.72C12.5467 41.2667 12.2533 40.8533 11.96 40.48C11.6933 40.08 11.44 39.7333 11.2 39.44L14.68 37.6ZM25.64 30.56H31V27.16H25.64V30.56ZM8.6 34H13.76V31.84H8.6V34ZM8.6 29.08H13.76V27H8.6V29.08ZM43.52 48.76V19.2H57.48V12.52H62.44V19.2H76.44V44.36C76.44 47.2133 74.72 48.64 71.28 48.64H67.88C67.8533 48.1867 67.7867 47.6533 67.68 47.04C67.5733 46.4267 67.44 45.8267 67.28 45.24C67.1467 44.6267 67 44.1467 66.84 43.8H69.96C70.52 43.8 70.92 43.7067 71.16 43.52C71.4267 43.3333 71.56 42.9733 71.56 42.44V23.84H62.36C62.28 24.6667 62.1733 25.4533 62.04 26.2C61.9333 26.92 61.7867 27.6267 61.6 28.32C62.72 29.0933 63.8933 29.9867 65.12 31C66.3467 31.9867 67.52 33.0133 68.64 34.08C69.76 35.12 70.7067 36.1067 71.48 37.04C71.1067 37.28 70.6667 37.6133 70.16 38.04C69.68 38.4667 69.2133 38.92 68.76 39.4C68.3333 39.8533 68 40.28 67.76 40.68C66.8 39.3467 65.6 37.9467 64.16 36.48C62.7467 35.0133 61.3333 33.7067 59.92 32.56C58.9867 34.2933 57.7867 35.8533 56.32 37.24C54.88 38.6267 53.1867 39.9333 51.24 41.16C51.0267 40.7067 50.6267 40.16 50.04 39.52C49.48 38.8533 48.9467 38.3067 48.44 37.88V48.76H43.52ZM48.44 37.12C50.92 35.76 52.9333 34.0267 54.48 31.92C56.0533 29.7867 57.0133 27.0933 57.36 23.84H48.44V37.12ZM103.08 46.36C102.973 45.9333 102.773 45.4267 102.48 44.84C102.187 44.2533 101.84 43.6933 101.44 43.16C101.067 42.6 100.693 42.1467 100.32 41.8C103.973 41.24 106.747 40.0533 108.64 38.24C110.56 36.4 111.573 34.24 111.68 31.76C111.787 29.7867 111.427 28.0267 110.6 26.48C109.773 24.9333 108.64 23.68 107.2 22.72C105.787 21.76 104.227 21.1867 102.52 21C102.307 23.48 101.907 26.0133 101.32 28.6C100.733 31.1867 99.9333 33.6133 98.92 35.88C97.9333 38.1467 96.72 40.0667 95.28 41.64C94.1867 42.8133 93.12 43.4933 92.08 43.68C91.0667 43.8667 89.9867 43.72 88.84 43.24C87.72 42.76 86.7333 42 85.88 40.96C85.0267 39.92 84.3733 38.6933 83.92 37.28C83.4667 35.84 83.28 34.3067 83.36 32.68C83.4933 30.2533 84.0667 28.04 85.08 26.04C86.0933 24.0133 87.4533 22.2667 89.16 20.8C90.8667 19.3333 92.8267 18.2267 95.04 17.48C97.2533 16.7333 99.6133 16.4267 102.12 16.56C104.147 16.6667 106.053 17.12 107.84 17.92C109.627 18.72 111.187 19.8267 112.52 21.24C113.88 22.6267 114.92 24.24 115.64 26.08C116.387 27.92 116.693 29.9333 116.56 32.12C116.373 35.7733 115.093 38.84 112.72 41.32C110.347 43.7733 107.133 45.4533 103.08 46.36ZM90.08 38.28C90.3733 38.4933 90.68 38.6 91 38.6C91.32 38.6 91.64 38.44 91.96 38.12C92.92 37.16 93.8 35.8 94.6 34.04C95.4267 32.28 96.1067 30.2933 96.64 28.08C97.2 25.8667 97.56 23.6133 97.72 21.32C95.88 21.7467 94.24 22.52 92.8 23.64C91.3867 24.76 90.2667 26.12 89.44 27.72C88.6133 29.2933 88.1467 31.0267 88.04 32.92C87.9867 34.1733 88.1467 35.2667 88.52 36.2C88.92 37.1067 89.44 37.8 90.08 38.28ZM152 35.12C150.56 34.56 148.92 33.9733 147.08 33.36C145.267 32.7467 143.373 32.1467 141.4 31.56C139.427 32.5733 137.187 33.3467 134.68 33.88C132.2 34.3867 129.347 34.7467 126.12 34.96C126.013 34.4267 125.84 33.8 125.6 33.08C125.387 32.3333 125.16 31.7467 124.92 31.32C127.08 31.2933 129.027 31.1733 130.76 30.96C132.52 30.7467 134.107 30.4267 135.52 30C134.373 29.7067 133.227 29.4533 132.08 29.24C130.96 29.0267 129.867 28.84 128.8 28.68C129.173 28.3067 129.627 27.8267 130.16 27.24C130.693 26.6533 131.253 26.0133 131.84 25.32H125.6V23.28H122.56V15.32H137.44V12.32H142.44V15.32H157.36V23.12H154.28V25.32H148.88C148.347 25.9867 147.787 26.6267 147.2 27.24C146.613 27.8533 146 28.4267 145.36 28.96C146.827 29.3067 148.32 29.7067 149.84 30.16C151.36 30.5867 152.853 31.0667 154.32 31.6C153.947 32.0267 153.52 32.6133 153.04 33.36C152.587 34.08 152.24 34.6667 152 35.12ZM137.64 49.2V41.56C136.467 42.4933 135.12 43.4133 133.6 44.32C132.08 45.2267 130.52 46.04 128.92 46.76C127.347 47.48 125.867 48.04 124.48 48.44C124.267 47.9067 123.947 47.28 123.52 46.56C123.093 45.8667 122.64 45.3067 122.16 44.88C123.333 44.56 124.64 44.1067 126.08 43.52C127.547 42.9333 129.013 42.2667 130.48 41.52C131.947 40.7733 133.293 40 134.52 39.2H122.16V35.72H137.64V33.12H142.32V35.72H157.88V39.2H145.8C147.027 39.9467 148.347 40.6667 149.76 41.36C151.173 42.0267 152.587 42.6267 154 43.16C155.44 43.6933 156.76 44.12 157.96 44.44C157.533 44.8667 157.08 45.4667 156.6 46.24C156.12 47.04 155.773 47.7067 155.56 48.24C154.173 47.84 152.68 47.28 151.08 46.56C149.48 45.84 147.92 45.0267 146.4 44.12C144.88 43.1867 143.52 42.2533 142.32 41.32V49.2H137.64ZM139.84 21.72H152.8V18.8H142.16C141.867 19.2 141.52 19.6533 141.12 20.16C140.72 20.6667 140.293 21.1867 139.84 21.72ZM127.12 21.72H134.84C135.293 21.1867 135.72 20.6667 136.12 20.16C136.52 19.6533 136.867 19.2 137.16 18.8H127.12V21.72ZM140.48 27.8C141.04 27.4267 141.573 27.04 142.08 26.64C142.587 26.2133 143.067 25.7733 143.52 25.32H136.84C136.573 25.6133 136.32 25.8933 136.08 26.16C135.867 26.4267 135.68 26.6533 135.52 26.84C136.267 26.9467 137.053 27.08 137.88 27.24C138.707 27.4 139.573 27.5867 140.48 27.8ZM163.52 48.76V19.2H177.48V12.52H182.44V19.2H196.44V44.36C196.44 47.2133 194.72 48.64 191.28 48.64H187.88C187.853 48.1867 187.787 47.6533 187.68 47.04C187.573 46.4267 187.44 45.8267 187.28 45.24C187.147 44.6267 187 44.1467 186.84 43.8H189.96C190.52 43.8 190.92 43.7067 191.16 43.52C191.427 43.3333 191.56 42.9733 191.56 42.44V23.84H182.36C182.28 24.6667 182.173 25.4533 182.04 26.2C181.933 26.92 181.787 27.6267 181.6 28.32C182.72 29.0933 183.893 29.9867 185.12 31C186.347 31.9867 187.52 33.0133 188.64 34.08C189.76 35.12 190.707 36.1067 191.48 37.04C191.107 37.28 190.667 37.6133 190.16 38.04C189.68 38.4667 189.213 38.92 188.76 39.4C188.333 39.8533 188 40.28 187.76 40.68C186.8 39.3467 185.6 37.9467 184.16 36.48C182.747 35.0133 181.333 33.7067 179.92 32.56C178.987 34.2933 177.787 35.8533 176.32 37.24C174.88 38.6267 173.187 39.9333 171.24 41.16C171.027 40.7067 170.627 40.16 170.04 39.52C169.48 38.8533 168.947 38.3067 168.44 37.88V48.76H163.52ZM168.44 37.12C170.92 35.76 172.933 34.0267 174.48 31.92C176.053 29.7867 177.013 27.0933 177.36 23.84H168.44V37.12Z" fill="#F5EFE7"/>
<path d="M237 5L235.801 64H178L237 5Z" fill="#05032B"/>
<path d="M186 54.598L225.598 15" stroke="#F5EFE7" stroke-width="2"/>
<path d="M219.541 56V40.127H223.237V56H219.541ZM221.356 37.52C220.718 37.52 220.168 37.289 219.706 36.827C219.244 36.365 219.013 35.815 219.013 35.177C219.013 34.539 219.244 33.989 219.706 33.527C220.168 33.065 220.718 32.834 221.356 32.834C221.994 32.834 222.544 33.065 223.006 33.527C223.468 33.989 223.699 34.539 223.699 35.177C223.699 35.815 223.468 36.365 223.006 36.827C222.544 37.289 221.994 37.52 221.356 37.52ZM229.034 56V40.127H232.367L232.565 42.008C233.005 41.392 233.588 40.864 234.314 40.424C235.04 39.962 235.898 39.731 236.888 39.731C238.538 39.731 239.88 40.259 240.914 41.315C241.97 42.371 242.498 43.922 242.498 45.968V56H238.769V46.859C238.769 45.605 238.516 44.67 238.01 44.054C237.504 43.416 236.822 43.097 235.964 43.097C235.018 43.097 234.248 43.427 233.654 44.087C233.06 44.725 232.763 45.682 232.763 46.958V56H229.034ZM249.535 56V43.328H246.532V40.127H249.535V37.289C249.535 35.331 249.986 33.978 250.888 33.23C251.79 32.482 253.077 32.108 254.749 32.108C255.277 32.108 255.805 32.141 256.333 32.207C256.883 32.273 257.323 32.35 257.653 32.438V35.804C257.345 35.694 257.004 35.606 256.63 35.54C256.278 35.452 255.915 35.408 255.541 35.408C254.793 35.408 254.221 35.595 253.825 35.969C253.429 36.321 253.231 36.915 253.231 37.751V40.127H257.653V43.328H253.231V56H249.535ZM268.218 56.363C266.766 56.363 265.457 56.022 264.291 55.34C263.147 54.636 262.234 53.668 261.552 52.436C260.892 51.182 260.562 49.719 260.562 48.047C260.562 46.375 260.892 44.923 261.552 43.691C262.234 42.437 263.147 41.469 264.291 40.787C265.457 40.083 266.766 39.731 268.218 39.731C269.714 39.731 271.034 40.083 272.178 40.787C273.344 41.469 274.257 42.437 274.917 43.691C275.577 44.923 275.907 46.375 275.907 48.047C275.907 49.719 275.577 51.182 274.917 52.436C274.257 53.668 273.344 54.636 272.178 55.34C271.034 56.022 269.714 56.363 268.218 56.363ZM268.218 52.997C269.384 52.997 270.33 52.568 271.056 51.71C271.804 50.852 272.178 49.631 272.178 48.047C272.178 46.463 271.804 45.242 271.056 44.384C270.33 43.526 269.384 43.097 268.218 43.097C267.074 43.097 266.139 43.526 265.413 44.384C264.687 45.242 264.324 46.463 264.324 48.047C264.324 49.631 264.687 50.852 265.413 51.71C266.139 52.568 267.074 52.997 268.218 52.997ZM280.432 56V40.127H283.798L284.029 42.371C284.425 41.579 285.041 40.941 285.877 40.457C286.735 39.973 287.637 39.731 288.583 39.731C288.957 39.731 289.298 39.753 289.606 39.797C289.914 39.841 290.178 39.896 290.398 39.962V43.559C290.112 43.471 289.771 43.405 289.375 43.361C289.001 43.295 288.561 43.262 288.055 43.262C286.977 43.262 286.053 43.614 285.283 44.318C284.535 45.022 284.161 46.012 284.161 47.288V56H280.432ZM294.352 56V40.127H297.685L297.916 42.041C298.224 41.381 298.741 40.831 299.467 40.391C300.193 39.951 301.029 39.731 301.975 39.731C303.009 39.731 303.911 39.973 304.681 40.457C305.451 40.941 306.045 41.634 306.463 42.536C306.881 41.722 307.486 41.051 308.278 40.523C309.092 39.995 310.016 39.731 311.05 39.731C312.612 39.731 313.866 40.281 314.812 41.381C315.78 42.459 316.264 43.988 316.264 45.968V56H312.502V46.826C312.502 45.66 312.293 44.747 311.875 44.087C311.457 43.427 310.874 43.097 310.126 43.097C309.18 43.097 308.443 43.438 307.915 44.12C307.409 44.802 307.156 45.77 307.156 47.024V56H303.427V46.826C303.427 45.66 303.207 44.747 302.767 44.087C302.327 43.427 301.733 43.097 300.985 43.097C300.061 43.097 299.346 43.449 298.84 44.153C298.334 44.835 298.081 45.792 298.081 47.024V56H294.352ZM326.829 56.231C325.113 56.297 323.694 55.923 322.572 55.109C321.472 54.295 320.922 53.118 320.922 51.578C320.922 50.456 321.263 49.499 321.945 48.707C322.627 47.915 323.507 47.299 324.585 46.859C325.663 46.397 326.774 46.155 327.918 46.133C328.49 46.089 329.029 46.133 329.535 46.265C330.041 46.397 330.492 46.584 330.888 46.826V45.44C330.888 44.406 330.668 43.735 330.228 43.427C329.788 43.119 329.139 42.965 328.281 42.965C327.357 42.965 326.378 43.141 325.344 43.493C324.332 43.823 323.463 44.241 322.737 44.747L321.054 41.876C321.956 41.304 323.045 40.809 324.321 40.391C325.597 39.951 326.917 39.731 328.281 39.731C330.327 39.731 331.867 40.149 332.901 40.985C333.935 41.799 334.452 43.284 334.452 45.44V52.733C334.452 53.195 334.551 53.459 334.749 53.525C334.969 53.591 335.453 53.514 336.201 53.294V55.637C335.871 55.791 335.453 55.923 334.947 56.033C334.463 56.165 333.935 56.231 333.363 56.231C332.681 56.231 332.153 56.121 331.779 55.901C331.427 55.659 331.174 55.263 331.02 54.713C330.47 55.175 329.832 55.538 329.106 55.802C328.38 56.044 327.621 56.187 326.829 56.231ZM326.763 52.997C327.995 52.953 329.007 52.711 329.799 52.271C330.613 51.831 330.998 51.204 330.954 50.39C330.932 49.862 330.657 49.499 330.129 49.301C329.623 49.103 328.985 49.026 328.215 49.07C327.137 49.092 326.246 49.367 325.542 49.895C324.838 50.401 324.497 50.973 324.519 51.611C324.563 52.601 325.311 53.063 326.763 52.997ZM346.065 56.363C344.503 56.363 343.304 56.077 342.468 55.505C341.654 54.933 341.247 53.789 341.247 52.073V43.328H338.211V40.127H341.247V34.55H344.943V40.127H349.332V43.328H344.943V51.116C344.943 51.864 345.119 52.37 345.471 52.634C345.845 52.898 346.373 53.03 347.055 53.03C347.473 53.03 347.891 52.964 348.309 52.832C348.749 52.7 349.09 52.568 349.332 52.436V55.835C348.936 55.989 348.441 56.11 347.847 56.198C347.253 56.308 346.659 56.363 346.065 56.363ZM354.109 56V40.127H357.805V56H354.109ZM355.924 37.52C355.286 37.52 354.736 37.289 354.274 36.827C353.812 36.365 353.581 35.815 353.581 35.177C353.581 34.539 353.812 33.989 354.274 33.527C354.736 33.065 355.286 32.834 355.924 32.834C356.562 32.834 357.112 33.065 357.574 33.527C358.036 33.989 358.267 34.539 358.267 35.177C358.267 35.815 358.036 36.365 357.574 36.827C357.112 37.289 356.562 37.52 355.924 37.52ZM370.433 56.363C368.981 56.363 367.672 56.022 366.506 55.34C365.362 54.636 364.449 53.668 363.767 52.436C363.107 51.182 362.777 49.719 362.777 48.047C362.777 46.375 363.107 44.923 363.767 43.691C364.449 42.437 365.362 41.469 366.506 40.787C367.672 40.083 368.981 39.731 370.433 39.731C371.929 39.731 373.249 40.083 374.393 40.787C375.559 41.469 376.472 42.437 377.132 43.691C377.792 44.923 378.122 46.375 378.122 48.047C378.122 49.719 377.792 51.182 377.132 52.436C376.472 53.668 375.559 54.636 374.393 55.34C373.249 56.022 371.929 56.363 370.433 56.363ZM370.433 52.997C371.599 52.997 372.545 52.568 373.271 51.71C374.019 50.852 374.393 49.631 374.393 48.047C374.393 46.463 374.019 45.242 373.271 44.384C372.545 43.526 371.599 43.097 370.433 43.097C369.289 43.097 368.354 43.526 367.628 44.384C366.902 45.242 366.539 46.463 366.539 48.047C366.539 49.631 366.902 50.852 367.628 51.71C368.354 52.568 369.289 52.997 370.433 52.997ZM382.647 56V40.127H385.98L386.178 42.008C386.618 41.392 387.201 40.864 387.927 40.424C388.653 39.962 389.511 39.731 390.501 39.731C392.151 39.731 393.493 40.259 394.527 41.315C395.583 42.371 396.111 43.922 396.111 45.968V56H392.382V46.859C392.382 45.605 392.129 44.67 391.623 44.054C391.117 43.416 390.435 43.097 389.577 43.097C388.631 43.097 387.861 43.427 387.267 44.087C386.673 44.725 386.376 45.682 386.376 46.958V56H382.647Z" fill="#F5EFE7"/>
</svg>
