<svg width="229" height="69" viewBox="0 0 229 69" fill="none" xmlns="http://www.w3.org/2000/svg">
<path d="M14.2 47.24C12.2267 47.48 10.48 47.3867 8.96 46.96C7.44 46.56 6.25333 45.88 5.4 44.92C4.54667 43.96 4.12 42.76 4.12 41.32C4.12 39.4267 4.88 37.5733 6.4 35.76C7.94667 33.92 10.0667 32.4267 12.76 31.28V25.24C11.2933 25.3467 9.86667 25.4267 8.48 25.48C7.12 25.5333 5.85333 25.5333 4.68 25.48L4.44 20.88C5.45333 20.9867 6.69333 21.0267 8.16 21C9.62667 20.9467 11.16 20.84 12.76 20.68V14.24L17.2 14.28V20.16C18.5333 19.9467 19.7733 19.72 20.92 19.48C22.0933 19.2133 23.0533 18.9333 23.8 18.64L24.28 23.04C23.3467 23.3867 22.2667 23.6933 21.04 23.96C19.8133 24.2267 18.5333 24.4667 17.2 24.68V29.92C18.1333 29.7067 19.1067 29.5467 20.12 29.44C21.1333 29.3333 22.1867 29.28 23.28 29.28C25.84 29.28 28.0133 29.68 29.8 30.48C31.6133 31.2533 32.9867 32.3067 33.92 33.64C34.8533 34.9467 35.32 36.4267 35.32 38.08C35.32 40.64 34.5467 42.6533 33 44.12C31.4533 45.5867 29.36 46.3067 26.72 46.28C24.6667 46.28 22.9333 45.7733 21.52 44.76C20.1333 43.72 19.1333 42.1867 18.52 40.16C19.1333 39.9733 19.88 39.6933 20.76 39.32C21.64 38.92 22.3333 38.5467 22.84 38.2C23.5067 40.4133 24.7867 41.52 26.68 41.52C27.8533 41.52 28.7467 41.1867 29.36 40.52C29.9733 39.8267 30.28 38.9733 30.28 37.96C30.28 36.6533 29.6933 35.5733 28.52 34.72C27.3467 33.84 25.5867 33.4 23.24 33.4C21.1067 33.4 19.0933 33.6667 17.2 34.2V44.16C17.2 45.1467 16.9733 45.8667 16.52 46.32C16.0667 46.8 15.2933 47.1067 14.2 47.24ZM34.56 28.72C33.92 28.08 33.0533 27.3867 31.96 26.64C30.8667 25.8667 29.7467 25.1467 28.6 24.48C27.4533 23.7867 26.4267 23.2667 25.52 22.92L28.04 19.32C29 19.6933 30.0533 20.2 31.2 20.84C32.3467 21.48 33.4667 22.16 34.56 22.88C35.6533 23.6 36.5733 24.2933 37.32 24.96C37.0533 25.2533 36.72 25.6533 36.32 26.16C35.9467 26.6667 35.5867 27.16 35.24 27.64C34.92 28.12 34.6933 28.48 34.56 28.72ZM11.32 43C11.8267 43.0267 12.1867 42.9733 12.4 42.84C12.64 42.7067 12.76 42.4667 12.76 42.12V36C11.5333 36.7467 10.56 37.56 9.84 38.44C9.12 39.32 8.76 40.2 8.76 41.08C8.76 41.6933 8.98667 42.16 9.44 42.48C9.89333 42.8 10.52 42.9733 11.32 43ZM62.24 44.88V17.36H77.08V44.88H62.24ZM43.8 48.88C43.6667 48.56 43.4267 48.1467 43.08 47.64C42.7333 47.16 42.36 46.68 41.96 46.2C41.56 45.7467 41.2 45.4 40.88 45.16C43.5733 44.0133 45.7067 42.4667 47.28 40.52C48.88 38.5733 49.8267 36.04 50.12 32.92H42.84V28.44H50.2V22.44H48.12C47.56 23.3733 46.9867 24.2667 46.4 25.12C45.8133 25.9467 45.2267 26.68 44.64 27.32C44.0533 26.84 43.4133 26.3867 42.72 25.96C42.0267 25.5067 41.3733 25.16 40.76 24.92C41.8 23.9067 42.7733 22.6933 43.68 21.28C44.5867 19.84 45.3867 18.3333 46.08 16.76C46.7733 15.1867 47.2933 13.6933 47.64 12.28L52.12 13.44C51.72 14.8533 51.1467 16.3867 50.4 18.04H59.92V22.44H54.76V28.44H61.08V32.92H54.68C54.68 33 54.6667 33.08 54.64 33.16C54.64 33.2133 54.64 33.2667 54.64 33.32C54.96 34.0933 55.4133 34.9467 56 35.88C56.6133 36.7867 57.28 37.6933 58 38.6C58.7467 39.5067 59.48 40.3467 60.2 41.12C60.92 41.8667 61.56 42.4667 62.12 42.92C61.7733 43.16 61.3333 43.4933 60.8 43.92C60.2667 44.32 59.76 44.7333 59.28 45.16C58.8 45.5867 58.4267 45.96 58.16 46.28C57.3867 45.4267 56.5467 44.4 55.64 43.2C54.7333 42 53.8933 40.7467 53.12 39.44C52.2133 41.4933 50.96 43.3067 49.36 44.88C47.7867 46.4533 45.9333 47.7867 43.8 48.88ZM66.92 40.52H72.52V21.84H66.92V40.52ZM96.92 48.12C96.84 47.72 96.68 47.2133 96.44 46.6C96.2267 45.9867 95.96 45.3733 95.64 44.76C95.32 44.1467 95 43.6667 94.68 43.32C98.9467 43.4267 102.2 42.92 104.44 41.8C106.707 40.68 107.84 39.0933 107.84 37.04C107.84 35.84 107.36 34.9067 106.4 34.24C105.44 33.5733 104.187 33.24 102.64 33.24C101.44 33.24 100.16 33.4267 98.8 33.8C97.44 34.1467 96.1467 34.7333 94.92 35.56C93.72 36.36 92.7067 37.44 91.88 38.8L87.6 36.92C88.1333 35.9867 88.5867 34.8267 88.96 33.44C89.36 32.0267 89.68 30.56 89.92 29.04C90.16 27.52 90.3333 26.08 90.44 24.72C90.5467 23.36 90.56 22.24 90.48 21.36L95.48 21.96C95.5067 23.2667 95.4 24.8133 95.16 26.6C94.92 28.36 94.5467 30.1067 94.04 31.84C95.4533 30.9067 96.9333 30.1867 98.48 29.68C100.027 29.1733 101.48 28.92 102.84 28.92C104.92 28.92 106.72 29.28 108.24 30C109.787 30.6933 110.987 31.6667 111.84 32.92C112.693 34.1467 113.12 35.56 113.12 37.16C113.12 39.1867 112.533 41.0133 111.36 42.64C110.213 44.24 108.44 45.52 106.04 46.48C103.667 47.44 100.627 47.9867 96.92 48.12ZM103.56 22.48C102.893 21.9467 102.093 21.4133 101.16 20.88C100.253 20.3467 99.2933 19.84 98.28 19.36C97.2667 18.88 96.2667 18.4667 95.28 18.12C94.32 17.7467 93.4667 17.4933 92.72 17.36L95.12 13.2C95.8133 13.3867 96.64 13.68 97.6 14.08C98.56 14.4533 99.56 14.88 100.6 15.36C101.667 15.84 102.667 16.32 103.6 16.8C104.56 17.28 105.347 17.72 105.96 18.12L103.56 22.48ZM140.44 46.36C138.013 46.36 136.12 46.16 134.76 45.76C133.427 45.3333 132.48 44.6267 131.92 43.64C131.387 42.6267 131.12 41.2267 131.12 39.44V29.2C129.413 29.3867 127.827 29.6 126.36 29.84C124.92 30.0533 123.693 30.28 122.68 30.52L122.24 25.8C123.253 25.6667 124.533 25.52 126.08 25.36C127.627 25.1733 129.307 25 131.12 24.84V16.24H135.68V24.44C137.093 24.3067 138.52 24.1867 139.96 24.08C141.427 23.9733 142.853 23.8667 144.24 23.76V15H148.88V23.48C150.64 23.3733 152.24 23.2933 153.68 23.24C155.147 23.1867 156.373 23.16 157.36 23.16V27.96C156.32 27.88 155.067 27.84 153.6 27.84C152.16 27.8133 150.587 27.8267 148.88 27.88V30.44C148.88 31.88 148.653 33.0667 148.2 34C147.747 34.9333 146.973 35.6667 145.88 36.2C144.813 36.7067 143.333 37.04 141.44 37.2C141.333 36.5067 141.12 35.7467 140.8 34.92C140.48 34.0667 140.12 33.3867 139.72 32.88C141.373 32.8533 142.533 32.6533 143.2 32.28C143.893 31.9067 144.24 31.2933 144.24 30.44V28.08C142.853 28.16 141.427 28.2533 139.96 28.36C138.52 28.4667 137.093 28.5867 135.68 28.72V38.8C135.68 39.6 135.813 40.2267 136.08 40.68C136.373 41.1067 136.88 41.4 137.6 41.56C138.32 41.72 139.333 41.8 140.64 41.8C141.627 41.8 142.8 41.7467 144.16 41.64C145.52 41.5333 146.893 41.3867 148.28 41.2C149.667 41.0133 150.867 40.7867 151.88 40.52C151.72 40.9733 151.573 41.52 151.44 42.16C151.333 42.8 151.253 43.4267 151.2 44.04C151.147 44.6533 151.133 45.1467 151.16 45.52C149.533 45.7867 147.747 45.9867 145.8 46.12C143.88 46.28 142.093 46.36 140.44 46.36Z" fill="#F5EFE7"/>
<path d="M184 10L182.801 69H125L184 10Z" fill="#060430"/>
<path d="M139.482 53.4818L179.08 13.8838" stroke="#F5EFE7" stroke-width="2"/>
<path d="M170.586 45V32.494H173.212L173.368 33.976C173.715 33.4907 174.174 33.0747 174.746 32.728C175.318 32.364 175.994 32.182 176.774 32.182C178.074 32.182 179.131 32.598 179.946 33.43C180.778 34.262 181.194 35.484 181.194 37.096V45H178.256V37.798C178.256 36.81 178.057 36.0733 177.658 35.588C177.259 35.0853 176.722 34.834 176.046 34.834C175.301 34.834 174.694 35.094 174.226 35.614C173.758 36.1167 173.524 36.8707 173.524 37.876V45H170.586ZM190.899 45.286C189.079 45.286 187.605 44.74 186.479 43.648C185.352 42.5387 184.789 40.9007 184.789 38.734C184.789 37.382 185.04 36.2207 185.543 35.25C186.045 34.262 186.747 33.508 187.649 32.988C188.55 32.4507 189.581 32.182 190.743 32.182C191.904 32.182 192.892 32.468 193.707 33.04C194.521 33.5947 195.145 34.3573 195.579 35.328C196.012 36.2987 196.229 37.3907 196.229 38.604V39.28H187.674C187.744 40.528 188.073 41.4207 188.663 41.958C189.252 42.478 190.015 42.738 190.951 42.738C191.765 42.738 192.433 42.5473 192.953 42.166C193.473 41.7673 193.923 41.178 194.305 40.398L196.463 41.906C195.821 43.102 195.033 43.9687 194.097 44.506C193.178 45.026 192.112 45.286 190.899 45.286ZM187.805 37.018H193.343C193.204 36.2033 192.901 35.5793 192.433 35.146C191.982 34.6953 191.401 34.47 190.691 34.47C189.928 34.47 189.295 34.678 188.793 35.094C188.307 35.51 187.978 36.1513 187.805 37.018ZM202.077 45L198.463 32.494H201.245L203.455 40.84L205.665 32.494H208.109L210.293 40.84L212.529 32.494H215.311L211.671 45H209.123L206.887 36.576L204.599 45H202.077ZM222.409 45.26C221.386 45.26 220.416 45.0867 219.497 44.74C218.578 44.376 217.764 43.804 217.053 43.024L218.873 41.074C219.844 42.166 221.074 42.712 222.565 42.712C223.276 42.712 223.787 42.6167 224.099 42.426C224.428 42.218 224.593 41.8453 224.593 41.308C224.593 41.048 224.515 40.84 224.359 40.684C224.203 40.5107 223.908 40.3547 223.475 40.216C223.059 40.0773 222.444 39.93 221.629 39.774C220.416 39.5313 219.445 39.1327 218.717 38.578C217.989 38.0233 217.625 37.148 217.625 35.952C217.625 35.172 217.833 34.5047 218.249 33.95C218.665 33.378 219.228 32.936 219.939 32.624C220.65 32.312 221.438 32.156 222.305 32.156C223.276 32.156 224.16 32.3033 224.957 32.598C225.754 32.8753 226.448 33.3173 227.037 33.924L225.399 35.978C224.983 35.5273 224.515 35.2067 223.995 35.016C223.475 34.8253 222.929 34.73 222.357 34.73C221.716 34.73 221.256 34.8427 220.979 35.068C220.719 35.2933 220.589 35.562 220.589 35.874C220.589 36.0993 220.65 36.29 220.771 36.446C220.91 36.602 221.17 36.7493 221.551 36.888C221.932 37.0267 222.487 37.1827 223.215 37.356C224.602 37.6853 225.676 38.162 226.439 38.786C227.202 39.41 227.583 40.2853 227.583 41.412C227.583 42.6773 227.098 43.6393 226.127 44.298C225.174 44.9393 223.934 45.26 222.409 45.26Z" fill="#F5EFE7"/>
</svg>
