<svg width="411" height="64" viewBox="0 0 411 64" fill="none" xmlns="http://www.w3.org/2000/svg">
<path d="M9.12 48.88C9.09333 48.5333 9.02667 48.0933 8.92 47.56C8.84 47.0533 8.74667 46.5467 8.64 46.04C8.53333 45.56 8.41333 45.1867 8.28 44.92H10.88C11.68 44.92 12.28 44.8133 12.68 44.6C13.1067 44.3867 13.4267 43.8267 13.64 42.92C13.6933 42.7333 13.7333 42.5333 13.76 42.32C13.8133 42.1067 13.8667 41.8667 13.92 41.6C13.6533 41.68 13.3733 41.76 13.08 41.84C12.8133 41.8933 12.6133 41.9467 12.48 42C12.4 41.2267 12.24 40.32 12 39.28C11.7867 38.2133 11.5467 37.3333 11.28 36.64L13.36 36.12C13.4933 36.4667 13.64 36.9333 13.8 37.52C13.96 38.1067 14.1067 38.7067 14.24 39.32C14.2933 38.6267 14.3467 37.9333 14.4 37.24C14.4533 36.52 14.48 35.8533 14.48 35.24H3.08V13.64H19V17.48H14.24V19.72H17.8V23.16H14.24V25.4H17.8V28.88H14.24V31.44H18.84C18.84 33.0133 18.7733 34.6133 18.64 36.24C18.5067 37.8667 18.3333 39.4 18.12 40.84C17.9333 42.2533 17.7067 43.4667 17.44 44.48C17.0133 46.1867 16.3467 47.3467 15.44 47.96C14.5333 48.5733 13.2667 48.88 11.64 48.88H9.12ZM18.36 47.64V43.68H26.16V35.04H20.32V31H26.16V23.56H19.56V19.56H27.2C26.5333 18.7067 25.7867 17.8667 24.96 17.04C24.16 16.1867 23.32 15.4267 22.44 14.76L26.32 12.24C27.4133 13.0933 28.4667 14.0533 29.48 15.12C30.52 16.1867 31.4133 17.2533 32.16 18.32C31.8667 18.4533 31.5333 18.64 31.16 18.88C30.7867 19.0933 30.4133 19.32 30.04 19.56H37.68V23.56H30.84V31H37.04V35.04H30.84V43.68H38.36V47.64H18.36ZM1.84 44.48C1.89333 43.92 1.92 43.2267 1.92 42.4C1.94667 41.5467 1.96 40.7067 1.96 39.88C1.96 39.0267 1.92 38.3067 1.84 37.72L4.6 37.4C4.65333 37.96 4.69333 38.6667 4.72 39.52C4.74667 40.3467 4.76 41.1867 4.76 42.04C4.78667 42.8933 4.8 43.64 4.8 44.28C4.37333 44.2533 3.88 44.2667 3.32 44.32C2.78667 44.3467 2.29333 44.4 1.84 44.48ZM5.76 43.56C5.76 43.08 5.73333 42.4533 5.68 41.68C5.62667 40.9067 5.56 40.1467 5.48 39.4C5.42667 38.6267 5.36 38.04 5.28 37.64L7.68 37.32C7.76 37.8 7.84 38.4133 7.92 39.16C8.02667 39.88 8.10667 40.6 8.16 41.32C8.24 42.04 8.28 42.6533 8.28 43.16C8.01333 43.1867 7.6 43.2533 7.04 43.36C6.48 43.44 6.05333 43.5067 5.76 43.56ZM9.2 42.84C9.17333 42.3067 9.10667 41.6933 9 41C8.92 40.28 8.82667 39.5733 8.72 38.88C8.61333 38.1867 8.49333 37.6267 8.36 37.2L10.6 36.8C10.7333 37.28 10.8667 37.8667 11 38.56C11.1333 39.2533 11.2533 39.9467 11.36 40.64C11.4667 41.3067 11.5333 41.88 11.56 42.36C11.4267 42.3867 11.2 42.44 10.88 42.52C10.56 42.5733 10.2267 42.6267 9.88 42.68C9.56 42.7333 9.33333 42.7867 9.2 42.84ZM7.12 31.44H10.4V28.88H7.12V31.44ZM7.12 25.4H10.4V23.16H7.12V25.4ZM7.12 19.72H10.4V17.48H7.12V19.72ZM57.52 49.04V43.2H41.84V39.24H57.52V37.12H46.52V22.2H57.52V20.08H43.32V16.16H57.52V12.44H62.36V16.16H76.4V20.08H62.36V22.2H73.32V37.12H62.36V39.24H78.16V43.2H62.36V49.04H57.52ZM51.4 33.44H57.52V31.16H51.4V33.44ZM62.36 33.44H68.44V31.16H62.36V33.44ZM51.4 28.12H57.52V25.92H51.4V28.12ZM62.36 28.12H68.44V25.92H62.36V28.12ZM101.4 49.16C101.213 48.9733 100.907 48.72 100.48 48.4C100.053 48.08 99.6133 47.7733 99.16 47.48C98.7067 47.1867 98.3333 46.9867 98.04 46.88C99.32 46.2667 100.587 45.3867 101.84 44.24C103.12 43.0933 104.28 41.8533 105.32 40.52C106.36 39.16 107.147 37.88 107.68 36.68H105.96C105.133 38.12 104.08 39.56 102.8 41C101.547 42.4133 100.16 43.6933 98.64 44.84C97.1467 45.9867 95.6133 46.8933 94.04 47.56C93.88 47.32 93.6267 47.0133 93.28 46.64C92.9333 46.2667 92.5733 45.9067 92.2 45.56C91.8267 45.2133 91.5067 44.9733 91.24 44.84C92.4133 44.3867 93.6667 43.7333 95 42.88C96.3333 42 97.5867 41.0133 98.76 39.92C99.96 38.8267 100.92 37.7467 101.64 36.68H99.76C98.7467 37.8267 97.6533 38.88 96.48 39.84C95.3333 40.8 94.1733 41.5867 93 42.2C92.7333 41.8267 92.28 41.36 91.64 40.8C91.0267 40.24 90.4933 39.8267 90.04 39.56C91.16 39.0267 92.28 38.3333 93.4 37.48C94.5467 36.6267 95.6 35.6933 96.56 34.68C97.52 33.64 98.2933 32.6133 98.88 31.6H95.12V35.64C94.48 35.9867 93.6133 36.4 92.52 36.88C91.4533 37.3333 90.3067 37.8 89.08 38.28C87.8533 38.76 86.6533 39.2 85.48 39.6C84.3067 40 83.2933 40.32 82.44 40.56L81.28 36.04C81.9733 35.9067 82.7333 35.7333 83.56 35.52C84.4133 35.3067 85.2933 35.0667 86.2 34.8V24.8H81.76V20.68H86.2V12.88H90.84V20.68H94.96V24.8H90.84V33.24C91.6133 32.9467 92.3467 32.6667 93.04 32.4C93.7333 32.1333 94.3333 31.8667 94.84 31.6H94.2V28.2H118.2V31.6H103.28C103.147 31.8667 103 32.1467 102.84 32.44C102.68 32.7333 102.507 33.0267 102.32 33.32H117.28C117.28 34.0933 117.253 35.0267 117.2 36.12C117.147 37.2133 117.053 38.36 116.92 39.56C116.813 40.7333 116.667 41.8533 116.48 42.92C116.32 43.96 116.107 44.8267 115.84 45.52C115.387 46.8 114.76 47.68 113.96 48.16C113.16 48.6667 112.04 48.92 110.6 48.92H107.8C107.747 48.28 107.627 47.56 107.44 46.76C107.253 45.96 107.027 45.3067 106.76 44.8C105.933 45.7067 105.067 46.5333 104.16 47.28C103.253 48.0533 102.333 48.68 101.4 49.16ZM97.32 26.68V13.28H114.68V26.68H97.32ZM106.84 44.68H109.64C110.253 44.68 110.72 44.6 111.04 44.44C111.36 44.2533 111.627 43.8667 111.84 43.28C112.027 42.8267 112.2 42.2 112.36 41.4C112.547 40.5733 112.693 39.7333 112.8 38.88C112.907 38 112.973 37.2667 113 36.68H111.8C111.267 38.04 110.56 39.4133 109.68 40.8C108.827 42.1867 107.88 43.48 106.84 44.68ZM101.72 23.44H110.28V21.52H101.72V23.44ZM101.72 18.6H110.28V16.72H101.72V18.6ZM126 46.28C125.813 45.1867 125.667 43.8533 125.56 42.28C125.453 40.68 125.373 38.9467 125.32 37.08C125.293 35.1867 125.293 33.24 125.32 31.24C125.373 29.24 125.453 27.2933 125.56 25.4C125.693 23.48 125.853 21.7067 126.04 20.08C126.253 18.4533 126.493 17.0667 126.76 15.92L131.44 16.88C131.147 17.84 130.893 19.0933 130.68 20.64C130.467 22.16 130.293 23.84 130.16 25.68C130.027 27.4933 129.933 29.36 129.88 31.28C129.853 33.2 129.867 35.0667 129.92 36.88C129.973 38.6933 130.067 40.3333 130.2 41.8C130.333 43.2667 130.507 44.4533 130.72 45.36L126 46.28ZM143 44.12C138.387 43.9867 135.773 42.48 135.16 39.6C135 38.88 134.947 38.08 135 37.2C135.053 36.32 135.253 35.3467 135.6 34.28L139.8 35.32C139.613 35.8267 139.507 36.28 139.48 36.68C139.48 37.08 139.533 37.44 139.64 37.76C139.987 38.72 141.4 39.24 143.88 39.32C145.08 39.3467 146.36 39.3067 147.72 39.2C149.107 39.0667 150.453 38.88 151.76 38.64C153.093 38.4 154.253 38.1333 155.24 37.84C155.187 38.2133 155.12 38.72 155.04 39.36C154.987 40 154.947 40.6533 154.92 41.32C154.893 41.96 154.893 42.4933 154.92 42.92C153.667 43.24 152.32 43.4933 150.88 43.68C149.467 43.8667 148.067 44 146.68 44.08C145.32 44.1333 144.093 44.1467 143 44.12ZM137 24.6L136.72 19.68C137.733 19.8133 138.973 19.8933 140.44 19.92C141.907 19.9467 143.427 19.9333 145 19.88C146.6 19.8 148.12 19.68 149.56 19.52C151.027 19.3333 152.24 19.1067 153.2 18.84L153 23.68C151.933 23.8667 150.693 24.04 149.28 24.2C147.867 24.3333 146.4 24.44 144.88 24.52C143.387 24.6 141.947 24.6533 140.56 24.68C139.2 24.68 138.013 24.6533 137 24.6ZM176.96 44.04C176.88 43.56 176.693 43 176.4 42.36C176.107 41.72 175.773 41.0933 175.4 40.48C175.053 39.8667 174.707 39.3733 174.36 39C177.853 38.7333 180.867 38.2533 183.4 37.56C185.96 36.84 187.92 35.88 189.28 34.68C190.667 33.48 191.32 32 191.24 30.24C191.08 26.48 188.307 24.72 182.92 24.96C182.093 24.9867 181.08 25.0933 179.88 25.28C178.68 25.44 177.373 25.6533 175.96 25.92C174.573 26.1867 173.173 26.5067 171.76 26.88C170.373 27.2267 169.067 27.6 167.84 28C166.613 28.3733 165.573 28.7467 164.72 29.12C164.72 29.0933 164.6 28.8267 164.36 28.32C164.147 27.7867 163.893 27.1867 163.6 26.52C163.333 25.8267 163.093 25.2267 162.88 24.72C162.667 24.1867 162.547 23.9067 162.52 23.88C163.347 23.72 164.413 23.5067 165.72 23.24C167.027 22.9467 168.453 22.64 170 22.32C171.573 22 173.147 21.7067 174.72 21.44C176.293 21.1467 177.773 20.9067 179.16 20.72C180.573 20.5067 181.773 20.3867 182.76 20.36C185.827 20.2267 188.347 20.56 190.32 21.36C192.293 22.1333 193.773 23.2667 194.76 24.76C195.773 26.2533 196.32 28.0133 196.4 30.04C196.48 32.2 196.053 34.08 195.12 35.68C194.213 37.2533 192.893 38.6 191.16 39.72C189.427 40.8133 187.347 41.72 184.92 42.44C182.52 43.1333 179.867 43.6667 176.96 44.04ZM216.64 41.96C215.307 42.7067 214.053 43.0133 212.88 42.88C211.707 42.72 210.667 41.96 209.76 40.6C208.933 39.32 208.173 37.8133 207.48 36.08C206.787 34.3467 206.187 32.5067 205.68 30.56C205.2 28.6133 204.827 26.6667 204.56 24.72C204.32 22.7733 204.213 20.9467 204.24 19.24L209.12 19.28C209.04 20.5867 209.08 22.0133 209.24 23.56C209.4 25.1067 209.653 26.6667 210 28.24C210.347 29.8133 210.76 31.28 211.24 32.64C211.72 33.9733 212.24 35.0933 212.8 36C213.173 36.64 213.573 37.0133 214 37.12C214.453 37.2 214.933 37.08 215.44 36.76C216.08 36.3333 216.747 35.7467 217.44 35C218.16 34.2533 218.76 33.5333 219.24 32.84C219.373 33.24 219.587 33.6933 219.88 34.2C220.2 34.7067 220.533 35.2 220.88 35.68C221.253 36.16 221.587 36.5467 221.88 36.84C221.16 37.9067 220.333 38.8933 219.4 39.8C218.493 40.7067 217.573 41.4267 216.64 41.96ZM231.76 34.48C231.493 33.7067 231.08 32.7467 230.52 31.6C229.96 30.4533 229.32 29.2667 228.6 28.04C227.88 26.7867 227.16 25.64 226.44 24.6C225.72 23.5333 225.053 22.7067 224.44 22.12L228.28 19.68C228.947 20.3467 229.68 21.24 230.48 22.36C231.307 23.48 232.107 24.68 232.88 25.96C233.68 27.2133 234.387 28.44 235 29.64C235.613 30.8133 236.053 31.8133 236.32 32.64C235.493 32.8 234.653 33.0533 233.8 33.4C232.973 33.7467 232.293 34.1067 231.76 34.48ZM269.48 47.56C266.707 47.24 264.253 46.44 262.12 45.16C259.987 43.8533 258.32 42.16 257.12 40.08C255.92 37.9733 255.32 35.5867 255.32 32.92C255.32 31 255.787 29.0533 256.72 27.08C257.653 25.08 259.027 23.3067 260.84 21.76C258.707 22.1067 256.587 22.48 254.48 22.88C252.373 23.2533 250.453 23.6133 248.72 23.96C247.013 24.3067 245.693 24.6133 244.76 24.88L243.68 19.68C244.56 19.6267 245.773 19.5067 247.32 19.32C248.893 19.1333 250.653 18.9067 252.6 18.64C254.573 18.3467 256.6 18.04 258.68 17.72C260.787 17.3733 262.813 17.0267 264.76 16.68C266.733 16.3333 268.493 16 270.04 15.68C271.613 15.3333 272.84 15.0267 273.72 14.76L275 19.64C274.6 19.6667 274.093 19.7333 273.48 19.84C272.893 19.92 272.213 20.0133 271.44 20.12C270 20.3067 268.6 20.76 267.24 21.48C265.907 22.2 264.707 23.1333 263.64 24.28C262.6 25.4 261.773 26.6933 261.16 28.16C260.547 29.6267 260.24 31.2133 260.24 32.92C260.24 34.9467 260.76 36.64 261.8 38C262.84 39.36 264.253 40.4267 266.04 41.2C267.853 41.9467 269.88 42.4533 272.12 42.72C271.72 43.1467 271.333 43.6667 270.96 44.28C270.587 44.8667 270.267 45.4533 270 46.04C269.733 46.6533 269.56 47.16 269.48 47.56Z" fill="#F5EFE7"/>
<path d="M311 3L309.801 62H252L311 3Z" fill="#05032B"/>
<path d="M260 52.598L299.598 13" stroke="#F5EFE7" stroke-width="2"/>
<path d="M295.013 60.501V38.127H298.247L298.445 39.876C299.567 38.446 301.041 37.731 302.867 37.731C304.341 37.731 305.65 38.061 306.794 38.721C307.96 39.381 308.873 40.338 309.533 41.592C310.193 42.824 310.523 44.309 310.523 46.047C310.523 47.785 310.193 49.281 309.533 50.535C308.873 51.767 307.96 52.713 306.794 53.373C305.65 54.033 304.341 54.363 302.867 54.363C302.053 54.363 301.294 54.209 300.59 53.901C299.886 53.571 299.27 53.12 298.742 52.548V60.501H295.013ZM302.735 50.997C303.901 50.997 304.869 50.568 305.639 49.71C306.409 48.852 306.794 47.631 306.794 46.047C306.794 44.463 306.409 43.242 305.639 42.384C304.869 41.526 303.901 41.097 302.735 41.097C301.569 41.097 300.601 41.526 299.831 42.384C299.061 43.242 298.676 44.463 298.676 46.047C298.676 47.631 299.061 48.852 299.831 49.71C300.601 50.568 301.569 50.997 302.735 50.997ZM319.948 54.231C318.232 54.297 316.813 53.923 315.691 53.109C314.591 52.295 314.041 51.118 314.041 49.578C314.041 48.456 314.382 47.499 315.064 46.707C315.746 45.915 316.626 45.299 317.704 44.859C318.782 44.397 319.893 44.155 321.037 44.133C321.609 44.089 322.148 44.133 322.654 44.265C323.16 44.397 323.611 44.584 324.007 44.826V43.44C324.007 42.406 323.787 41.735 323.347 41.427C322.907 41.119 322.258 40.965 321.4 40.965C320.476 40.965 319.497 41.141 318.463 41.493C317.451 41.823 316.582 42.241 315.856 42.747L314.173 39.876C315.075 39.304 316.164 38.809 317.44 38.391C318.716 37.951 320.036 37.731 321.4 37.731C323.446 37.731 324.986 38.149 326.02 38.985C327.054 39.799 327.571 41.284 327.571 43.44V50.733C327.571 51.195 327.67 51.459 327.868 51.525C328.088 51.591 328.572 51.514 329.32 51.294V53.637C328.99 53.791 328.572 53.923 328.066 54.033C327.582 54.165 327.054 54.231 326.482 54.231C325.8 54.231 325.272 54.121 324.898 53.901C324.546 53.659 324.293 53.263 324.139 52.713C323.589 53.175 322.951 53.538 322.225 53.802C321.499 54.044 320.74 54.187 319.948 54.231ZM319.882 50.997C321.114 50.953 322.126 50.711 322.918 50.271C323.732 49.831 324.117 49.204 324.073 48.39C324.051 47.862 323.776 47.499 323.248 47.301C322.742 47.103 322.104 47.026 321.334 47.07C320.256 47.092 319.365 47.367 318.661 47.895C317.957 48.401 317.616 48.973 317.638 49.611C317.682 50.601 318.43 51.063 319.882 50.997ZM333.682 54V38.127H337.048L337.279 40.371C337.675 39.579 338.291 38.941 339.127 38.457C339.985 37.973 340.887 37.731 341.833 37.731C342.207 37.731 342.548 37.753 342.856 37.797C343.164 37.841 343.428 37.896 343.648 37.962V41.559C343.362 41.471 343.021 41.405 342.625 41.361C342.251 41.295 341.811 41.262 341.305 41.262C340.227 41.262 339.303 41.614 338.533 42.318C337.785 43.022 337.411 44.012 337.411 45.288V54H333.682ZM347.603 54V30.471H351.332V44.694L356.843 38.127H361.331L355.094 45.288L361.694 54H357.239L351.332 45.948V54H347.603ZM366.176 54V38.127H369.872V54H366.176ZM367.991 35.52C367.353 35.52 366.803 35.289 366.341 34.827C365.879 34.365 365.648 33.815 365.648 33.177C365.648 32.539 365.879 31.989 366.341 31.527C366.803 31.065 367.353 30.834 367.991 30.834C368.629 30.834 369.179 31.065 369.641 31.527C370.103 31.989 370.334 32.539 370.334 33.177C370.334 33.815 370.103 34.365 369.641 34.827C369.179 35.289 368.629 35.52 367.991 35.52ZM375.67 54V38.127H379.003L379.201 40.008C379.641 39.392 380.224 38.864 380.95 38.424C381.676 37.962 382.534 37.731 383.524 37.731C385.174 37.731 386.516 38.259 387.55 39.315C388.606 40.371 389.134 41.922 389.134 43.968V54H385.405V44.859C385.405 43.605 385.152 42.67 384.646 42.054C384.14 41.416 383.458 41.097 382.6 41.097C381.654 41.097 380.884 41.427 380.29 42.087C379.696 42.725 379.399 43.682 379.399 44.958V54H375.67ZM401.022 60.567C399.372 60.567 397.964 60.259 396.798 59.643C395.632 59.027 394.664 58.07 393.894 56.772L396.897 54.792C397.337 55.606 397.887 56.211 398.547 56.607C399.207 57.003 400.032 57.201 401.022 57.201C402.32 57.201 403.277 56.805 403.893 56.013C404.509 55.221 404.817 53.956 404.817 52.218V51.327C403.783 52.405 402.474 52.944 400.89 52.944C399.504 52.944 398.261 52.658 397.161 52.086C396.083 51.492 395.236 50.634 394.62 49.512C394.004 48.368 393.696 46.971 393.696 45.321C393.696 43.649 394.004 42.252 394.62 41.13C395.236 40.008 396.083 39.161 397.161 38.589C398.261 38.017 399.504 37.731 400.89 37.731C402.65 37.731 404.069 38.358 405.147 39.612L405.279 38.127H408.513V52.218C408.513 54.836 407.897 56.882 406.665 58.356C405.455 59.83 403.574 60.567 401.022 60.567ZM401.187 49.677C402.331 49.677 403.266 49.292 403.992 48.522C404.718 47.73 405.081 46.663 405.081 45.321C405.081 43.957 404.718 42.901 403.992 42.153C403.266 41.383 402.331 40.998 401.187 40.998C400.043 40.998 399.13 41.383 398.448 42.153C397.788 42.901 397.458 43.957 397.458 45.321C397.458 46.663 397.788 47.73 398.448 48.522C399.13 49.292 400.043 49.677 401.187 49.677Z" fill="#F5EFE7"/>
</svg>
