<svg width="586" height="66" viewBox="0 0 586 66" fill="none" xmlns="http://www.w3.org/2000/svg">
<path d="M7.92 47.96C7.57333 47.2133 7.14667 46.44 6.64 45.64C6.13333 44.8133 5.65333 44.1867 5.2 43.76C8.16 42.6933 10.96 41.2933 13.6 39.56C16.2667 37.8267 18.6667 35.84 20.8 33.6C20 33.0667 19.2133 32.5733 18.44 32.12C17.6667 31.6667 16.92 31.28 16.2 30.96L18.96 27.28C20.48 27.9733 22.1067 28.8667 23.84 29.96C24.5333 28.9733 25.1867 27.9733 25.8 26.96C26.4133 25.92 26.9467 24.8667 27.4 23.8C26.28 23.8533 25.0667 23.92 23.76 24C22.48 24.0533 21.28 24.1067 20.16 24.16C19.04 24.1867 18.16 24.2133 17.52 24.24C16.3467 26.0267 15.0267 27.7333 13.56 29.36C12.0933 30.96 10.4667 32.44 8.68 33.8C8.25333 33.2667 7.69333 32.6533 7 31.96C6.30667 31.2667 5.69333 30.7733 5.16 30.48C7.02667 29.1467 8.77333 27.56 10.4 25.72C12.0533 23.88 13.48 21.92 14.68 19.84C15.9067 17.76 16.8267 15.72 17.44 13.72L22.04 15.16C21.7467 15.9867 21.4267 16.8133 21.08 17.64C20.7333 18.44 20.36 19.2267 19.96 20C21.1333 19.9733 22.4 19.9467 23.76 19.92C25.1467 19.8667 26.44 19.8133 27.64 19.76C28.84 19.68 29.76 19.6 30.4 19.52L33.52 21.2C32.8267 23.3333 32 25.36 31.04 27.28C30.08 29.1733 29.0133 30.9733 27.84 32.68C28.8533 33.4267 29.8 34.1867 30.68 34.96C31.5867 35.7067 32.3333 36.4133 32.92 37.08C32.5467 37.3467 32.12 37.72 31.64 38.2C31.1867 38.68 30.7467 39.1733 30.32 39.68C29.92 40.1867 29.6 40.6267 29.36 41C28.1067 39.5867 26.5467 38.1067 24.68 36.56C22.44 39.04 19.9067 41.2267 17.08 43.12C14.28 45.0133 11.2267 46.6267 7.92 47.96ZM59.36 46.64V29.32C57.3333 30.7067 55.2533 32 53.12 33.2C51.0133 34.3733 48.9467 35.4 46.92 36.28C46.7067 35.88 46.4133 35.4133 46.04 34.88C45.6667 34.3467 45.2667 33.8267 44.84 33.32C44.44 32.8133 44.04 32.4133 43.64 32.12C45.96 31.2933 48.36 30.2133 50.84 28.88C53.32 27.5467 55.7067 26.0667 58 24.44C60.32 22.8133 62.44 21.1067 64.36 19.32C66.28 17.5333 67.84 15.76 69.04 14L73.2 16.84C72.0533 18.36 70.72 19.8667 69.2 21.36C67.7067 22.8267 66.0933 24.2533 64.36 25.64V46.64H59.36ZM111.8 44.4C111.533 43.8133 111.187 43.16 110.76 42.44C110.333 41.6933 109.853 40.9067 109.32 40.08C108.627 40.16 107.613 40.2933 106.28 40.48C104.947 40.64 103.44 40.8267 101.76 41.04C100.08 41.2533 98.3467 41.48 96.56 41.72C94.8 41.96 93.1067 42.1867 91.48 42.4C89.88 42.6133 88.48 42.8133 87.28 43C86.08 43.16 85.2267 43.28 84.72 43.36L83.36 38.32C83.7867 38.32 84.5067 38.28 85.52 38.2C86.5333 38.0933 87.72 37.9867 89.08 37.88C89.6133 36.8667 90.2267 35.6133 90.92 34.12C91.6133 32.6267 92.32 31.0267 93.04 29.32C93.7867 27.6133 94.4933 25.92 95.16 24.24C95.8267 22.56 96.4 21.04 96.88 19.68C97.36 18.32 97.6933 17.2533 97.88 16.48L103.32 18.04C103.053 18.6 102.667 19.44 102.16 20.56C101.653 21.6533 101.08 22.92 100.44 24.36C99.8 25.7733 99.12 27.2533 98.4 28.8C97.7067 30.3467 97.0133 31.8667 96.32 33.36C95.6533 34.8267 95.04 36.16 94.48 37.36C96.6667 37.1467 98.84 36.92 101 36.68C103.16 36.4133 105 36.1867 106.52 36C105.747 34.96 104.987 34 104.24 33.12C103.52 32.2133 102.88 31.5067 102.32 31L105.96 28.56C107.187 29.6267 108.427 30.8933 109.68 32.36C110.96 33.8267 112.16 35.36 113.28 36.96C114.427 38.56 115.413 40.08 116.24 41.52C115.787 41.7067 115.28 41.9733 114.72 42.32C114.16 42.6667 113.613 43.0267 113.08 43.4C112.573 43.7733 112.147 44.1067 111.8 44.4ZM127.04 45.44C126.693 44.8533 126.227 44.1467 125.64 43.32C125.08 42.4933 124.507 41.84 123.92 41.36C125.92 40.48 127.92 39.3867 129.92 38.08C131.92 36.7733 133.827 35.3067 135.64 33.68C137.48 32.0267 139.147 30.2933 140.64 28.48C142.16 26.64 143.44 24.7733 144.48 22.88C143.173 22.96 141.733 23.0533 140.16 23.16C138.613 23.2667 137.067 23.3733 135.52 23.48C134 23.56 132.613 23.6533 131.36 23.76C130.133 23.84 129.187 23.9067 128.52 23.96L127.96 18.88C128.627 18.88 129.627 18.8667 130.96 18.84C132.293 18.8133 133.787 18.7733 135.44 18.72C137.093 18.64 138.733 18.56 140.36 18.48C142.013 18.4 143.493 18.3067 144.8 18.2C146.133 18.0667 147.12 17.9467 147.76 17.84L151 19.92C150.36 21.7867 149.533 23.6267 148.52 25.44C147.507 27.2267 146.36 28.9467 145.08 30.6C146.013 31.32 147 32.1333 148.04 33.04C149.107 33.9467 150.147 34.88 151.16 35.84C152.173 36.8 153.107 37.72 153.96 38.6C154.813 39.48 155.52 40.2667 156.08 40.96C155.413 41.3867 154.707 41.9467 153.96 42.64C153.213 43.3067 152.56 43.9467 152 44.56C151.493 43.84 150.84 43.0267 150.04 42.12C149.24 41.1867 148.373 40.2533 147.44 39.32C146.533 38.36 145.613 37.44 144.68 36.56C143.747 35.6533 142.867 34.8533 142.04 34.16C139.827 36.5333 137.427 38.68 134.84 40.6C132.253 42.52 129.653 44.1333 127.04 45.44ZM174.48 47.96C174.08 47.3467 173.52 46.6533 172.8 45.88C172.08 45.1067 171.413 44.52 170.8 44.12C174.133 42.36 176.667 40.16 178.4 37.52C180.133 34.8533 181.133 31.7467 181.4 28.2H173.72C172.733 29.4267 171.693 30.56 170.6 31.6C169.507 32.64 168.347 33.5867 167.12 34.44C166.693 33.9333 166.12 33.3333 165.4 32.64C164.68 31.9467 164.013 31.4267 163.4 31.08C165.373 29.8 167.147 28.2533 168.72 26.44C170.293 24.6267 171.64 22.6667 172.76 20.56C173.907 18.4533 174.76 16.36 175.32 14.28L180.16 15.72C179.76 17.08 179.28 18.4133 178.72 19.72C178.187 21 177.573 22.2533 176.88 23.48H196.04V28.2H186.4C186.133 32.5467 185 36.3467 183 39.6C181.027 42.8533 178.187 45.64 174.48 47.96ZM210.2 46.08L207.48 41.16C209.4 40.7333 211.4 40.0667 213.48 39.16C215.587 38.2267 217.68 37.1467 219.76 35.92C221.84 34.6667 223.827 33.3333 225.72 31.92C227.613 30.48 229.32 29.04 230.84 27.6C232.36 26.1333 233.6 24.7333 234.56 23.4C234.667 23.88 234.84 24.4533 235.08 25.12C235.347 25.7867 235.627 26.4267 235.92 27.04C236.213 27.6533 236.467 28.1333 236.68 28.48C235.347 30.16 233.693 31.8533 231.72 33.56C229.773 35.2667 227.627 36.92 225.28 38.52C222.933 40.0933 220.467 41.5333 217.88 42.84C215.32 44.1467 212.76 45.2267 210.2 46.08ZM217.64 24.84C217.32 24.52 216.827 24.1333 216.16 23.68C215.52 23.2267 214.8 22.76 214 22.28C213.227 21.7733 212.48 21.32 211.76 20.92C211.067 20.52 210.493 20.2267 210.04 20.04L212.76 15.88C213.293 16.1467 213.92 16.5067 214.64 16.96C215.387 17.4133 216.133 17.8933 216.88 18.4C217.653 18.88 218.36 19.3467 219 19.8C219.667 20.2533 220.187 20.6267 220.56 20.92L217.64 24.84ZM212.12 33.12C211.613 32.6933 210.867 32.2133 209.88 31.68C208.92 31.1467 207.92 30.64 206.88 30.16C205.867 29.6533 205 29.28 204.28 29.04L206.76 24.72C207.533 25.0133 208.427 25.4133 209.44 25.92C210.48 26.4267 211.48 26.9467 212.44 27.48C213.4 28.0133 214.16 28.48 214.72 28.88L212.12 33.12ZM234.24 19.12C233.68 18.3467 232.947 17.5067 232.04 16.6C231.16 15.6933 230.373 14.9867 229.68 14.48L231.72 12.56C232.147 12.8533 232.653 13.2933 233.24 13.88C233.853 14.44 234.453 15.0267 235.04 15.64C235.627 16.2267 236.08 16.7333 236.4 17.16L234.24 19.12ZM230.84 22.36C230.28 21.56 229.56 20.7067 228.68 19.8C227.8 18.8933 227.013 18.1733 226.32 17.64L228.36 15.72C228.76 16.04 229.253 16.4933 229.84 17.08C230.453 17.6667 231.053 18.2667 231.64 18.88C232.227 19.4667 232.68 19.9733 233 20.4L230.84 22.36ZM247.4 42.56V38.8C247.8 38.8267 248.453 38.8533 249.36 38.88C250.267 38.88 251.32 38.8933 252.52 38.92C253.72 38.92 254.987 38.92 256.32 38.92C257.653 38.92 258.947 38.92 260.2 38.92H261.76L262.68 31.68C261.853 31.7067 260.893 31.7333 259.8 31.76C258.733 31.7867 257.68 31.8133 256.64 31.84C255.6 31.8667 254.667 31.8933 253.84 31.92C253.04 31.9467 252.48 31.9733 252.16 32L251.92 28.12C252.32 28.1467 253.04 28.1733 254.08 28.2C255.147 28.2 256.347 28.2 257.68 28.2C259.04 28.1733 260.373 28.1467 261.68 28.12C263.013 28.0933 264.173 28.0667 265.16 28.04C266.173 27.9867 266.84 27.9467 267.16 27.92L265.8 38.88C267.347 38.88 268.733 38.88 269.96 38.88C271.187 38.8533 272.013 38.8267 272.44 38.8V42.56C271.987 42.5067 271.12 42.48 269.84 42.48C268.56 42.4533 267.067 42.44 265.36 42.44C263.653 42.4133 261.933 42.4 260.2 42.4C259.16 42.4 257.973 42.4 256.64 42.4C255.333 42.4 254.04 42.4133 252.76 42.44C251.48 42.44 250.347 42.4533 249.36 42.48C248.4 42.5067 247.747 42.5333 247.4 42.56ZM283.68 33.4C283.707 33.0267 283.72 32.52 283.72 31.88C283.72 31.24 283.72 30.6 283.72 29.96C283.72 29.32 283.707 28.8133 283.68 28.44C284.187 28.4667 285.08 28.4933 286.36 28.52C287.667 28.5467 289.213 28.5733 291 28.6C292.813 28.6267 294.747 28.6533 296.8 28.68C298.853 28.68 300.907 28.68 302.96 28.68C305.013 28.68 306.947 28.6667 308.76 28.64C310.6 28.6133 312.187 28.5867 313.52 28.56C314.853 28.5333 315.8 28.4933 316.36 28.44C316.333 28.7867 316.307 29.28 316.28 29.92C316.28 30.56 316.28 31.2133 316.28 31.88C316.307 32.52 316.32 33.0133 316.32 33.36C315.653 33.3333 314.667 33.3067 313.36 33.28C312.08 33.2533 310.573 33.2267 308.84 33.2C307.133 33.1733 305.307 33.16 303.36 33.16C301.44 33.16 299.493 33.16 297.52 33.16C295.547 33.16 293.667 33.1733 291.88 33.2C290.093 33.2267 288.48 33.2533 287.04 33.28C285.627 33.3067 284.507 33.3467 283.68 33.4ZM342.16 43.68L339.56 41.6C339.613 41.1733 339.64 40.2933 339.64 38.96C339.667 37.6267 339.68 36.04 339.68 34.2C339.707 32.36 339.72 30.4933 339.72 28.6C339.72 26.2533 339.707 24.2133 339.68 22.48C339.653 20.7467 339.613 19.3867 339.56 18.4H344.68C344.627 18.88 344.587 19.6533 344.56 20.72C344.533 21.76 344.507 22.96 344.48 24.32C344.48 25.68 344.48 27.04 344.48 28.4V37.12C345.627 36.64 346.853 36.0533 348.16 35.36C349.493 34.6667 350.8 33.9333 352.08 33.16C353.387 32.3867 354.573 31.6267 355.64 30.88C356.707 30.1333 357.547 29.4533 358.16 28.84C358.16 29.3467 358.2 29.9733 358.28 30.72C358.387 31.4667 358.493 32.1867 358.6 32.88C358.733 33.5467 358.84 34.0267 358.92 34.32C358.04 35.0667 356.88 35.8933 355.44 36.8C354.027 37.7067 352.507 38.6 350.88 39.48C349.253 40.36 347.667 41.1733 346.12 41.92C344.6 42.6667 343.28 43.2533 342.16 43.68ZM324.84 44.6C324.493 44.0133 323.973 43.3467 323.28 42.6C322.587 41.8533 321.947 41.2533 321.36 40.8C323.573 39.6267 325.347 38.3467 326.68 36.96C328.04 35.5733 329.027 34.04 329.64 32.36C330.253 30.6533 330.587 28.76 330.64 26.68C330.693 24.6 330.547 22.2933 330.2 19.76L334.88 19.36C335.44 23.36 335.493 26.9333 335.04 30.08C334.613 33.2 333.573 35.9467 331.92 38.32C330.267 40.6933 327.907 42.7867 324.84 44.6Z" fill="#F5EFE7"/>
<path d="M389 5L387.801 64H330L389 5Z" fill="#05032B"/>
<path d="M338 54.5979L377.598 14.9999" stroke="#F5EFE7" stroke-width="2"/>
<path d="M377.514 56.363C375.952 56.363 374.753 56.077 373.917 55.505C373.103 54.933 372.696 53.789 372.696 52.073V43.328H369.66V40.127H372.696V34.55H376.392V40.127H380.781V43.328H376.392V51.116C376.392 51.864 376.568 52.37 376.92 52.634C377.294 52.898 377.822 53.03 378.504 53.03C378.922 53.03 379.34 52.964 379.758 52.832C380.198 52.7 380.539 52.568 380.781 52.436V55.835C380.385 55.989 379.89 56.11 379.296 56.198C378.702 56.308 378.108 56.363 377.514 56.363ZM385.558 56V40.127H389.254V56H385.558ZM387.373 37.52C386.735 37.52 386.185 37.289 385.723 36.827C385.261 36.365 385.03 35.815 385.03 35.177C385.03 34.539 385.261 33.989 385.723 33.527C386.185 33.065 386.735 32.834 387.373 32.834C388.011 32.834 388.561 33.065 389.023 33.527C389.485 33.989 389.716 34.539 389.716 35.177C389.716 35.815 389.485 36.365 389.023 36.827C388.561 37.289 388.011 37.52 387.373 37.52ZM395.051 56V40.127H398.384L398.615 42.041C398.923 41.381 399.44 40.831 400.166 40.391C400.892 39.951 401.728 39.731 402.674 39.731C403.708 39.731 404.61 39.973 405.38 40.457C406.15 40.941 406.744 41.634 407.162 42.536C407.58 41.722 408.185 41.051 408.977 40.523C409.791 39.995 410.715 39.731 411.749 39.731C413.311 39.731 414.565 40.281 415.511 41.381C416.479 42.459 416.963 43.988 416.963 45.968V56H413.201V46.826C413.201 45.66 412.992 44.747 412.574 44.087C412.156 43.427 411.573 43.097 410.825 43.097C409.879 43.097 409.142 43.438 408.614 44.12C408.108 44.802 407.855 45.77 407.855 47.024V56H404.126V46.826C404.126 45.66 403.906 44.747 403.466 44.087C403.026 43.427 402.432 43.097 401.684 43.097C400.76 43.097 400.045 43.449 399.539 44.153C399.033 44.835 398.78 45.792 398.78 47.024V56H395.051ZM429.244 56.363C426.934 56.363 425.064 55.67 423.634 54.284C422.204 52.876 421.489 50.797 421.489 48.047C421.489 46.331 421.808 44.857 422.446 43.625C423.084 42.371 423.975 41.414 425.119 40.754C426.263 40.072 427.572 39.731 429.046 39.731C430.52 39.731 431.774 40.094 432.808 40.82C433.842 41.524 434.634 42.492 435.184 43.724C435.734 44.956 436.009 46.342 436.009 47.882V48.74H425.152C425.24 50.324 425.658 51.457 426.406 52.139C427.154 52.799 428.122 53.129 429.31 53.129C430.344 53.129 431.191 52.887 431.851 52.403C432.511 51.897 433.083 51.149 433.567 50.159L436.306 52.073C435.492 53.591 434.491 54.691 433.303 55.373C432.137 56.033 430.784 56.363 429.244 56.363ZM425.317 45.869H432.346C432.17 44.835 431.785 44.043 431.191 43.493C430.619 42.921 429.882 42.635 428.98 42.635C428.012 42.635 427.209 42.899 426.571 43.427C425.955 43.955 425.537 44.769 425.317 45.869ZM457.121 56.33C455.823 56.33 454.591 56.11 453.425 55.67C452.259 55.208 451.225 54.482 450.323 53.492L452.633 51.017C453.865 52.403 455.427 53.096 457.319 53.096C458.221 53.096 458.87 52.975 459.266 52.733C459.684 52.469 459.893 51.996 459.893 51.314C459.893 50.984 459.794 50.72 459.596 50.522C459.398 50.302 459.024 50.104 458.474 49.928C457.946 49.752 457.165 49.565 456.131 49.367C454.591 49.059 453.359 48.553 452.435 47.849C451.511 47.145 451.049 46.034 451.049 44.516C451.049 43.526 451.313 42.679 451.841 41.975C452.369 41.249 453.084 40.688 453.986 40.292C454.888 39.896 455.889 39.698 456.989 39.698C458.221 39.698 459.343 39.885 460.355 40.259C461.367 40.611 462.247 41.172 462.995 41.942L460.916 44.549C460.388 43.977 459.794 43.57 459.134 43.328C458.474 43.086 457.781 42.965 457.055 42.965C456.241 42.965 455.658 43.108 455.306 43.394C454.976 43.68 454.811 44.021 454.811 44.417C454.811 44.703 454.888 44.945 455.042 45.143C455.218 45.341 455.548 45.528 456.032 45.704C456.516 45.88 457.22 46.078 458.144 46.298C459.904 46.716 461.268 47.321 462.236 48.113C463.204 48.905 463.688 50.016 463.688 51.446C463.688 53.052 463.072 54.273 461.84 55.109C460.63 55.923 459.057 56.33 457.121 56.33ZM474.774 56.363C473.322 56.363 472.013 56.022 470.847 55.34C469.703 54.636 468.79 53.668 468.108 52.436C467.448 51.182 467.118 49.719 467.118 48.047C467.118 46.375 467.448 44.923 468.108 43.691C468.79 42.437 469.703 41.469 470.847 40.787C472.013 40.083 473.322 39.731 474.774 39.731C476.072 39.731 477.249 39.995 478.305 40.523C479.383 41.051 480.263 41.81 480.945 42.8L477.975 44.978C477.293 43.724 476.226 43.097 474.774 43.097C473.63 43.097 472.695 43.526 471.969 44.384C471.243 45.242 470.88 46.463 470.88 48.047C470.88 49.631 471.243 50.852 471.969 51.71C472.695 52.568 473.63 52.997 474.774 52.997C476.204 52.997 477.282 52.381 478.008 51.149L480.945 53.294C480.263 54.262 479.383 55.021 478.305 55.571C477.249 56.099 476.072 56.363 474.774 56.363ZM485.473 56V32.471H489.202V42.008C489.554 41.392 490.082 40.864 490.786 40.424C491.49 39.962 492.337 39.731 493.327 39.731C494.977 39.731 496.319 40.259 497.353 41.315C498.409 42.371 498.937 43.922 498.937 45.968V56H495.208V46.859C495.208 45.605 494.955 44.67 494.449 44.054C493.943 43.416 493.261 43.097 492.403 43.097C491.457 43.097 490.687 43.427 490.093 44.087C489.499 44.725 489.202 45.682 489.202 46.958V56H485.473ZM511.254 56.363C508.944 56.363 507.074 55.67 505.644 54.284C504.214 52.876 503.499 50.797 503.499 48.047C503.499 46.331 503.818 44.857 504.456 43.625C505.094 42.371 505.985 41.414 507.129 40.754C508.273 40.072 509.582 39.731 511.056 39.731C512.53 39.731 513.784 40.094 514.818 40.82C515.852 41.524 516.644 42.492 517.194 43.724C517.744 44.956 518.019 46.342 518.019 47.882V48.74H507.162C507.25 50.324 507.668 51.457 508.416 52.139C509.164 52.799 510.132 53.129 511.32 53.129C512.354 53.129 513.201 52.887 513.861 52.403C514.521 51.897 515.093 51.149 515.577 50.159L518.316 52.073C517.502 53.591 516.501 54.691 515.313 55.373C514.147 56.033 512.794 56.363 511.254 56.363ZM507.327 45.869H514.356C514.18 44.835 513.795 44.043 513.201 43.493C512.629 42.921 511.892 42.635 510.99 42.635C510.022 42.635 509.219 42.899 508.581 43.427C507.965 43.955 507.547 44.769 507.327 45.869ZM529.684 56.363C528.232 56.363 526.923 56.033 525.757 55.373C524.613 54.713 523.7 53.767 523.018 52.535C522.358 51.281 522.028 49.785 522.028 48.047C522.028 46.309 522.358 44.824 523.018 43.592C523.7 42.338 524.613 41.381 525.757 40.721C526.923 40.061 528.232 39.731 529.684 39.731C531.356 39.731 532.731 40.336 533.809 41.546V32.471H537.538V56H534.304L534.139 54.185C533.589 54.867 532.929 55.406 532.159 55.802C531.411 56.176 530.586 56.363 529.684 56.363ZM529.849 52.997C531.015 52.997 531.983 52.568 532.753 51.71C533.523 50.852 533.908 49.631 533.908 48.047C533.908 46.463 533.523 45.242 532.753 44.384C531.983 43.526 531.015 43.097 529.849 43.097C528.683 43.097 527.715 43.526 526.945 44.384C526.175 45.242 525.79 46.463 525.79 48.047C525.79 49.631 526.175 50.852 526.945 51.71C527.715 52.568 528.683 52.997 529.849 52.997ZM548.243 56.363C546.593 56.363 545.24 55.835 544.184 54.779C543.15 53.723 542.633 52.161 542.633 50.093V40.127H546.362V49.268C546.362 50.478 546.615 51.402 547.121 52.04C547.649 52.678 548.331 52.997 549.167 52.997C550.113 52.997 550.883 52.667 551.477 52.007C552.071 51.347 552.368 50.379 552.368 49.103V40.127H556.097V56H552.764L552.566 54.119C552.148 54.713 551.576 55.241 550.85 55.703C550.124 56.143 549.255 56.363 548.243 56.363ZM561.458 56V32.471H565.187V56H561.458ZM577.474 56.363C575.164 56.363 573.294 55.67 571.864 54.284C570.434 52.876 569.719 50.797 569.719 48.047C569.719 46.331 570.038 44.857 570.676 43.625C571.314 42.371 572.205 41.414 573.349 40.754C574.493 40.072 575.802 39.731 577.276 39.731C578.75 39.731 580.004 40.094 581.038 40.82C582.072 41.524 582.864 42.492 583.414 43.724C583.964 44.956 584.239 46.342 584.239 47.882V48.74H573.382C573.47 50.324 573.888 51.457 574.636 52.139C575.384 52.799 576.352 53.129 577.54 53.129C578.574 53.129 579.421 52.887 580.081 52.403C580.741 51.897 581.313 51.149 581.797 50.159L584.536 52.073C583.722 53.591 582.721 54.691 581.533 55.373C580.367 56.033 579.014 56.363 577.474 56.363ZM573.547 45.869H580.576C580.4 44.835 580.015 44.043 579.421 43.493C578.849 42.921 578.112 42.635 577.21 42.635C576.242 42.635 575.439 42.899 574.801 43.427C574.185 43.955 573.767 44.769 573.547 45.869Z" fill="#F5EFE7"/>
</svg>
