<svg width="444" height="68" viewBox="0 0 444 68" fill="none" xmlns="http://www.w3.org/2000/svg">
<path d="M2.44 47.16V42.88H18.08V35.44H7.96V31.08H18.08V24.88H9.72C8.97333 26.1333 8.2 27.32 7.4 28.44C6.62667 29.56 5.86667 30.5333 5.12 31.36C4.85333 31.0933 4.45333 30.8 3.92 30.48C3.41333 30.1333 2.88 29.8133 2.32 29.52C1.78667 29.2 1.32 28.9733 0.92 28.84C1.69333 28.12 2.52 27.1333 3.4 25.88C4.30667 24.6 5.17333 23.2133 6 21.72C6.82667 20.2 7.54667 18.72 8.16 17.28C8.8 15.84 9.22667 14.5733 9.44 13.48L14.04 15C13.5867 16.8133 12.8933 18.68 11.96 20.6H18.08V12.68H23.12V20.6H36.12V24.88H23.12V31.08H33.12V35.44H23.12V42.88H37.56V47.16H2.44ZM66 48.28C62.7467 48.44 59.8933 48.28 57.44 47.8C54.9867 47.3467 53.08 46.4933 51.72 45.24C50.3867 43.96 49.72 42.2133 49.72 40C49.72 38.72 50.0667 37.6 50.76 36.64C51.4533 35.6533 52.4 34.8533 53.6 34.24C54.8 33.6267 56.1733 33.2133 57.72 33C59.2933 32.7867 60.9467 32.7867 62.68 33C62.2533 32.44 61.84 31.8533 61.44 31.24C61.04 30.6267 60.6533 30 60.28 29.36C57.7733 29.7867 55.32 30.1333 52.92 30.4C50.5467 30.64 48.5067 30.7467 46.8 30.72L45.88 26.48C47.3733 26.5333 49.2133 26.4667 51.4 26.28C53.5867 26.0667 55.84 25.7733 58.16 25.4C57.6 24.2533 57.0933 23.12 56.64 22C55.04 22.2133 53.48 22.3867 51.96 22.52C50.4667 22.6533 49.16 22.7333 48.04 22.76L47.12 18.6C48.2133 18.6267 49.4533 18.6 50.84 18.52C52.2533 18.4133 53.6933 18.2667 55.16 18.08C54.5733 16.3467 54.1733 14.8533 53.96 13.6L58.68 13.04C58.8133 14.24 59.16 15.6933 59.72 17.4C61.2133 17.1333 62.6267 16.84 63.96 16.52C65.32 16.1733 66.4533 15.8267 67.36 15.48L68.56 19.56C67.68 19.88 66.6 20.1867 65.32 20.48C64.04 20.7733 62.6667 21.0533 61.2 21.32C61.4133 21.8533 61.64 22.4 61.88 22.96C62.1467 23.4933 62.4133 24.0267 62.68 24.56C64.6267 24.16 66.4 23.7333 68 23.28C69.6267 22.8 70.9067 22.32 71.84 21.84L73.4 25.8C72.4133 26.28 71.1733 26.7467 69.68 27.2C68.2133 27.6533 66.6133 28.0667 64.88 28.44C65.7333 29.8267 66.6267 31.12 67.56 32.32C68.52 33.4933 69.4933 34.48 70.48 35.28L67.52 38.44C66 37.5867 64.48 37.04 62.96 36.8C61.4667 36.5333 60.0933 36.4933 58.84 36.68C57.5867 36.8667 56.5733 37.2267 55.8 37.76C55.0533 38.2933 54.68 38.9333 54.68 39.68C54.68 40.9067 55.24 41.8267 56.36 42.44C57.5067 43.0533 59.0533 43.4267 61 43.56C62.9467 43.6933 65.1467 43.68 67.6 43.52C67.3333 43.92 67.08 44.4267 66.84 45.04C66.6267 45.6267 66.44 46.2133 66.28 46.8C66.12 47.3867 66.0267 47.88 66 48.28ZM88.36 48.92V36.52C87.1067 37 85.9333 37.4267 84.84 37.8C83.7467 38.1733 82.9067 38.44 82.32 38.6L81.24 33.76C81.9867 33.6 83 33.32 84.28 32.92C85.5867 32.52 86.9467 32.0933 88.36 31.64V24.32H86.04C85.8533 25.3067 85.6533 26.24 85.44 27.12C85.2267 28 85.0133 28.7467 84.8 29.36C84.5067 29.2533 84.0933 29.1467 83.56 29.04C83.0533 28.9333 82.5333 28.84 82 28.76C81.4667 28.6533 81 28.6 80.6 28.6C81.0267 27.48 81.4 26.2 81.72 24.76C82.0667 23.32 82.3467 21.84 82.56 20.32C82.7733 18.8 82.8933 17.3733 82.92 16.04L87.04 16.48C87.0133 16.96 86.9733 17.52 86.92 18.16C86.8667 18.7733 86.8 19.4267 86.72 20.12H88.36V12.48H92.96V20.12H96.08V23.36C96.9067 21.6533 97.6267 19.8667 98.24 18C98.8533 16.1067 99.28 14.3467 99.52 12.72L103.92 13.36C103.547 15.4133 102.973 17.5733 102.2 19.84H117.44C117.44 21.6533 117.4 23.5733 117.32 25.6C117.267 27.6267 117.173 29.6267 117.04 31.6C116.933 33.5467 116.8 35.3333 116.64 36.96C116.507 38.5867 116.36 39.92 116.2 40.96C115.907 43.0933 115.44 44.7333 114.8 45.88C114.16 47 113.307 47.76 112.24 48.16C111.173 48.5867 109.8 48.8 108.12 48.8H105.6C105.547 48.3467 105.467 47.8133 105.36 47.2C105.253 46.5867 105.12 45.9867 104.96 45.4C104.827 44.7867 104.68 44.2933 104.52 43.92H107.84C108.933 43.92 109.76 43.6667 110.32 43.16C110.907 42.6267 111.347 41.6133 111.64 40.12C111.773 39.48 111.92 38.5867 112.08 37.44C112.24 36.2933 112.387 34.9867 112.52 33.52C112.68 32.0267 112.813 30.4667 112.92 28.84C113.027 27.1867 113.08 25.5467 113.08 23.92H111.84C111.333 28.0533 110.453 31.6 109.2 34.56C107.947 37.4933 106.307 40.0133 104.28 42.12C102.28 44.2267 99.88 46.1333 97.08 47.84C96.7867 47.2267 96.32 46.56 95.68 45.84C95.0667 45.0933 94.52 44.5467 94.04 44.2C97.9867 42.3067 101.08 39.6933 103.32 36.36C105.587 33 107.093 28.8533 107.84 23.92H105.96C105.373 27.3867 104.28 30.52 102.68 33.32C101.107 36.0933 98.92 38.5067 96.12 40.56C95.7733 40.0533 95.28 39.4933 94.64 38.88C94.0267 38.24 93.4667 37.7467 92.96 37.4V48.92H88.36ZM92.96 37.36C95.4133 35.8667 97.3867 33.96 98.88 31.64C100.373 29.32 101.427 26.7467 102.04 23.92H100.56C100.107 24.9067 99.6133 25.8667 99.08 26.8C98.5733 27.7333 98.04 28.6 97.48 29.4C96.92 29.0267 96.2533 28.6533 95.48 28.28C94.7067 27.9067 94.08 27.6667 93.6 27.56C93.9467 27.1067 94.28 26.6 94.6 26.04C94.9467 25.48 95.28 24.9067 95.6 24.32H92.96V30.08C93.7067 29.8133 94.3733 29.5733 94.96 29.36C95.5467 29.1467 96 28.9733 96.32 28.84V33.28C95.52 33.68 94.4 34.16 92.96 34.72V37.36ZM143.08 46.36C142.973 45.9333 142.773 45.4267 142.48 44.84C142.187 44.2533 141.84 43.6933 141.44 43.16C141.067 42.6 140.693 42.1467 140.32 41.8C143.973 41.24 146.747 40.0533 148.64 38.24C150.56 36.4 151.573 34.24 151.68 31.76C151.787 29.7867 151.427 28.0267 150.6 26.48C149.773 24.9333 148.64 23.68 147.2 22.72C145.787 21.76 144.227 21.1867 142.52 21C142.307 23.48 141.907 26.0133 141.32 28.6C140.733 31.1867 139.933 33.6133 138.92 35.88C137.933 38.1467 136.72 40.0667 135.28 41.64C134.187 42.8133 133.12 43.4933 132.08 43.68C131.067 43.8667 129.987 43.72 128.84 43.24C127.72 42.76 126.733 42 125.88 40.96C125.027 39.92 124.373 38.6933 123.92 37.28C123.467 35.84 123.28 34.3067 123.36 32.68C123.493 30.2533 124.067 28.04 125.08 26.04C126.093 24.0133 127.453 22.2667 129.16 20.8C130.867 19.3333 132.827 18.2267 135.04 17.48C137.253 16.7333 139.613 16.4267 142.12 16.56C144.147 16.6667 146.053 17.12 147.84 17.92C149.627 18.72 151.187 19.8267 152.52 21.24C153.88 22.6267 154.92 24.24 155.64 26.08C156.387 27.92 156.693 29.9333 156.56 32.12C156.373 35.7733 155.093 38.84 152.72 41.32C150.347 43.7733 147.133 45.4533 143.08 46.36ZM130.08 38.28C130.373 38.4933 130.68 38.6 131 38.6C131.32 38.6 131.64 38.44 131.96 38.12C132.92 37.16 133.8 35.8 134.6 34.04C135.427 32.28 136.107 30.2933 136.64 28.08C137.2 25.8667 137.56 23.6133 137.72 21.32C135.88 21.7467 134.24 22.52 132.8 23.64C131.387 24.76 130.267 26.12 129.44 27.72C128.613 29.2933 128.147 31.0267 128.04 32.92C127.987 34.1733 128.147 35.2667 128.52 36.2C128.92 37.1067 129.44 37.8 130.08 38.28ZM167.96 48.92V32.68C166.867 32.8133 165.813 32.9467 164.8 33.08C163.787 33.1867 162.907 33.2667 162.16 33.32L161.6 29C162.48 29 163.493 28.96 164.64 28.88C165.093 28.4 165.573 27.84 166.08 27.2C166.613 26.56 167.147 25.8667 167.68 25.12C166.773 24.4267 165.707 23.6667 164.48 22.84C163.28 21.9867 162.187 21.28 161.2 20.72L163.44 17.12C163.707 17.28 163.987 17.4533 164.28 17.64C164.573 17.8267 164.893 18.0267 165.24 18.24C165.613 17.6267 166.013 16.9467 166.44 16.2C166.867 15.4533 167.253 14.72 167.6 14C167.973 13.28 168.253 12.68 168.44 12.2L172.52 13.8C171.933 14.8667 171.267 16.0133 170.52 17.24C169.8 18.44 169.107 19.5067 168.44 20.44C168.76 20.6533 169.053 20.8667 169.32 21.08C169.613 21.2933 169.88 21.4933 170.12 21.68C170.84 20.5867 171.493 19.5733 172.08 18.64C172.693 17.68 173.173 16.88 173.52 16.24L177.36 18.24C176.827 19.1733 176.147 20.24 175.32 21.44C174.52 22.6133 173.653 23.8267 172.72 25.08C171.813 26.3067 170.933 27.4667 170.08 28.56C170.773 28.5067 171.427 28.4533 172.04 28.4C172.68 28.32 173.267 28.2533 173.8 28.2C173.533 27.3733 173.24 26.6267 172.92 25.96L176.56 24.52C177.093 25.5867 177.64 26.8933 178.2 28.44C180.253 27.2933 181.72 25.9067 182.6 24.28C183.48 22.6267 184.013 20.5067 184.2 17.92H178.56V14.04H197.64C197.64 15.3733 197.6 16.8267 197.52 18.4C197.44 19.9733 197.333 21.4667 197.2 22.88C197.093 24.2667 196.947 25.4 196.76 26.28C196.413 28.04 195.747 29.24 194.76 29.88C193.773 30.4933 192.413 30.8 190.68 30.8H188.56C188.533 30.4 188.467 29.9333 188.36 29.4C188.253 28.84 188.133 28.3067 188 27.8C187.893 27.2667 187.773 26.84 187.64 26.52H189.92C190.853 26.52 191.493 26.3867 191.84 26.12C192.187 25.8267 192.427 25.32 192.56 24.6C192.667 24.0667 192.76 23.4133 192.84 22.64C192.92 21.8667 192.987 21.0667 193.04 20.24C193.093 19.3867 193.12 18.6133 193.12 17.92H188.48C188.32 21.1467 187.667 23.8667 186.52 26.08C185.373 28.2667 183.507 30.1333 180.92 31.68C180.653 31.3067 180.267 30.84 179.76 30.28C179.28 29.6933 178.813 29.2267 178.36 28.88C178.6 29.52 178.813 30.1467 179 30.76C179.213 31.3733 179.373 31.92 179.48 32.4C178.92 32.5067 178.213 32.72 177.36 33.04C176.533 33.3333 175.893 33.6 175.44 33.84C175.387 33.5467 175.307 33.2133 175.2 32.84C175.12 32.4667 175.027 32.08 174.92 31.68C174.547 31.7333 174.133 31.8 173.68 31.88C173.253 31.96 172.8 32.0267 172.32 32.08V48.92H167.96ZM180 48.36V32.32H196.68V48.36H180ZM184.28 44.4H192.36V36.28H184.28V44.4ZM164.72 44.96C164.213 44.7467 163.573 44.5333 162.8 44.32C162.027 44.08 161.387 43.92 160.88 43.84C161.28 43.12 161.68 42.2267 162.08 41.16C162.48 40.0667 162.827 38.9333 163.12 37.76C163.44 36.5867 163.667 35.52 163.8 34.56L167.56 35.32C167.427 36.28 167.2 37.3733 166.88 38.6C166.587 39.8 166.253 40.9733 165.88 42.12C165.507 43.24 165.12 44.1867 164.72 44.96ZM175.32 43.48C175.107 42.8933 174.84 42.0933 174.52 41.08C174.227 40.04 173.933 38.9733 173.64 37.88C173.347 36.76 173.12 35.8267 172.96 35.08L176.6 34.12C176.76 34.76 176.987 35.5867 177.28 36.6C177.6 37.6133 177.92 38.6133 178.24 39.6C178.587 40.56 178.893 41.3333 179.16 41.92C178.573 42.0533 177.92 42.28 177.2 42.6C176.48 42.8933 175.853 43.1867 175.32 43.48ZM203.56 30C203.373 29.6 203.093 29.16 202.72 28.68C202.373 28.1733 201.987 27.6933 201.56 27.24C201.133 26.76 200.733 26.3867 200.36 26.12C202.013 25.48 203.72 24.6267 205.48 23.56C207.267 22.4667 208.973 21.2533 210.6 19.92C212.227 18.5867 213.693 17.24 215 15.88C216.307 14.4933 217.32 13.2 218.04 12L222.52 12.64C223.4 13.8667 224.493 15.12 225.8 16.4C227.107 17.6533 228.533 18.8533 230.08 20C231.653 21.1467 233.253 22.1867 234.88 23.12C236.533 24.0533 238.12 24.8 239.64 25.36C239.24 25.68 238.813 26.1067 238.36 26.64C237.907 27.1733 237.48 27.72 237.08 28.28C236.707 28.84 236.427 29.32 236.24 29.72C234.827 29.1067 233.36 28.3333 231.84 27.4C230.347 26.4667 228.867 25.44 227.4 24.32C225.96 23.1733 224.613 21.9867 223.36 20.76C222.133 19.5333 221.08 18.3067 220.2 17.08C219.4 18.2 218.333 19.3867 217 20.64C215.693 21.8667 214.253 23.08 212.68 24.28C211.107 25.48 209.52 26.5867 207.92 27.6C206.347 28.5867 204.893 29.3867 203.56 30ZM206.28 49.16C206.013 48.5733 205.587 47.8667 205 47.04C204.413 46.24 203.827 45.5867 203.24 45.08C205.24 44.4133 206.853 43.5867 208.08 42.6C209.333 41.6133 210.28 40.4 210.92 38.96C211.56 37.4933 211.973 35.76 212.16 33.76C212.347 31.76 212.4 29.4267 212.32 26.76H217.24C217.4 31.0267 217.12 34.6 216.4 37.48C215.707 40.36 214.533 42.7333 212.88 44.6C211.227 46.44 209.027 47.96 206.28 49.16ZM223.68 48.8V26.76H228.6V48.8H223.68Z" fill="#F5EFE7"/>
<path d="M272 7L270.801 66H213L272 7Z" fill="#05032B"/>
<path d="M221 56.5979L260.598 16.9999" stroke="#F5EFE7" stroke-width="2"/>
<path d="M254.541 58V42.127H258.237V58H254.541ZM256.356 39.52C255.718 39.52 255.168 39.289 254.706 38.827C254.244 38.365 254.013 37.815 254.013 37.177C254.013 36.539 254.244 35.989 254.706 35.527C255.168 35.065 255.718 34.834 256.356 34.834C256.994 34.834 257.544 35.065 258.006 35.527C258.468 35.989 258.699 36.539 258.699 37.177C258.699 37.815 258.468 38.365 258.006 38.827C257.544 39.289 256.994 39.52 256.356 39.52ZM264.034 58V42.127H267.367L267.565 44.008C268.005 43.392 268.588 42.864 269.314 42.424C270.04 41.962 270.898 41.731 271.888 41.731C273.538 41.731 274.88 42.259 275.914 43.315C276.97 44.371 277.498 45.922 277.498 47.968V58H273.769V48.859C273.769 47.605 273.516 46.67 273.01 46.054C272.504 45.416 271.822 45.097 270.964 45.097C270.018 45.097 269.248 45.427 268.654 46.087C268.06 46.725 267.763 47.682 267.763 48.958V58H264.034ZM288.742 58.363C287.18 58.363 285.981 58.077 285.145 57.505C284.331 56.933 283.924 55.789 283.924 54.073V45.328H280.888V42.127H283.924V36.55H287.62V42.127H292.009V45.328H287.62V53.116C287.62 53.864 287.796 54.37 288.148 54.634C288.522 54.898 289.05 55.03 289.732 55.03C290.15 55.03 290.568 54.964 290.986 54.832C291.426 54.7 291.767 54.568 292.009 54.436V57.835C291.613 57.989 291.118 58.11 290.524 58.198C289.93 58.308 289.336 58.363 288.742 58.363ZM296.258 58V42.127H299.624L299.855 44.371C300.251 43.579 300.867 42.941 301.703 42.457C302.561 41.973 303.463 41.731 304.409 41.731C304.783 41.731 305.124 41.753 305.432 41.797C305.74 41.841 306.004 41.896 306.224 41.962V45.559C305.938 45.471 305.597 45.405 305.201 45.361C304.827 45.295 304.387 45.262 303.881 45.262C302.803 45.262 301.879 45.614 301.109 46.318C300.361 47.022 299.987 48.012 299.987 49.288V58H296.258ZM317.01 58.363C315.558 58.363 314.249 58.022 313.083 57.34C311.939 56.636 311.026 55.668 310.344 54.436C309.684 53.182 309.354 51.719 309.354 50.047C309.354 48.375 309.684 46.923 310.344 45.691C311.026 44.437 311.939 43.469 313.083 42.787C314.249 42.083 315.558 41.731 317.01 41.731C318.506 41.731 319.826 42.083 320.97 42.787C322.136 43.469 323.049 44.437 323.709 45.691C324.369 46.923 324.699 48.375 324.699 50.047C324.699 51.719 324.369 53.182 323.709 54.436C323.049 55.668 322.136 56.636 320.97 57.34C319.826 58.022 318.506 58.363 317.01 58.363ZM317.01 54.997C318.176 54.997 319.122 54.568 319.848 53.71C320.596 52.852 320.97 51.631 320.97 50.047C320.97 48.463 320.596 47.242 319.848 46.384C319.122 45.526 318.176 45.097 317.01 45.097C315.866 45.097 314.931 45.526 314.205 46.384C313.479 47.242 313.116 48.463 313.116 50.047C313.116 51.631 313.479 52.852 314.205 53.71C314.931 54.568 315.866 54.997 317.01 54.997ZM336.054 58.363C334.602 58.363 333.293 58.033 332.127 57.373C330.983 56.713 330.07 55.767 329.388 54.535C328.728 53.281 328.398 51.785 328.398 50.047C328.398 48.309 328.728 46.824 329.388 45.592C330.07 44.338 330.983 43.381 332.127 42.721C333.293 42.061 334.602 41.731 336.054 41.731C337.726 41.731 339.101 42.336 340.179 43.546V34.471H343.908V58H340.674L340.509 56.185C339.959 56.867 339.299 57.406 338.529 57.802C337.781 58.176 336.956 58.363 336.054 58.363ZM336.219 54.997C337.385 54.997 338.353 54.568 339.123 53.71C339.893 52.852 340.278 51.631 340.278 50.047C340.278 48.463 339.893 47.242 339.123 46.384C338.353 45.526 337.385 45.097 336.219 45.097C335.053 45.097 334.085 45.526 333.315 46.384C332.545 47.242 332.16 48.463 332.16 50.047C332.16 51.631 332.545 52.852 333.315 53.71C334.085 54.568 335.053 54.997 336.219 54.997ZM354.613 58.363C352.963 58.363 351.61 57.835 350.554 56.779C349.52 55.723 349.003 54.161 349.003 52.093V42.127H352.732V51.268C352.732 52.478 352.985 53.402 353.491 54.04C354.019 54.678 354.701 54.997 355.537 54.997C356.483 54.997 357.253 54.667 357.847 54.007C358.441 53.347 358.738 52.379 358.738 51.103V42.127H362.467V58H359.134L358.936 56.119C358.518 56.713 357.946 57.241 357.22 57.703C356.494 58.143 355.625 58.363 354.613 58.363ZM374.659 58.363C373.207 58.363 371.898 58.022 370.732 57.34C369.588 56.636 368.675 55.668 367.993 54.436C367.333 53.182 367.003 51.719 367.003 50.047C367.003 48.375 367.333 46.923 367.993 45.691C368.675 44.437 369.588 43.469 370.732 42.787C371.898 42.083 373.207 41.731 374.659 41.731C375.957 41.731 377.134 41.995 378.19 42.523C379.268 43.051 380.148 43.81 380.83 44.8L377.86 46.978C377.178 45.724 376.111 45.097 374.659 45.097C373.515 45.097 372.58 45.526 371.854 46.384C371.128 47.242 370.765 48.463 370.765 50.047C370.765 51.631 371.128 52.852 371.854 53.71C372.58 54.568 373.515 54.997 374.659 54.997C376.089 54.997 377.167 54.381 377.893 53.149L380.83 55.294C380.148 56.262 379.268 57.021 378.19 57.571C377.134 58.099 375.957 58.363 374.659 58.363ZM391.859 58.363C390.297 58.363 389.098 58.077 388.262 57.505C387.448 56.933 387.041 55.789 387.041 54.073V45.328H384.005V42.127H387.041V36.55H390.737V42.127H395.126V45.328H390.737V53.116C390.737 53.864 390.913 54.37 391.265 54.634C391.639 54.898 392.167 55.03 392.849 55.03C393.267 55.03 393.685 54.964 394.103 54.832C394.543 54.7 394.884 54.568 395.126 54.436V57.835C394.73 57.989 394.235 58.11 393.641 58.198C393.047 58.308 392.453 58.363 391.859 58.363ZM399.903 58V42.127H403.599V58H399.903ZM401.718 39.52C401.08 39.52 400.53 39.289 400.068 38.827C399.606 38.365 399.375 37.815 399.375 37.177C399.375 36.539 399.606 35.989 400.068 35.527C400.53 35.065 401.08 34.834 401.718 34.834C402.356 34.834 402.906 35.065 403.368 35.527C403.83 35.989 404.061 36.539 404.061 37.177C404.061 37.815 403.83 38.365 403.368 38.827C402.906 39.289 402.356 39.52 401.718 39.52ZM416.228 58.363C414.776 58.363 413.467 58.022 412.301 57.34C411.157 56.636 410.244 55.668 409.562 54.436C408.902 53.182 408.572 51.719 408.572 50.047C408.572 48.375 408.902 46.923 409.562 45.691C410.244 44.437 411.157 43.469 412.301 42.787C413.467 42.083 414.776 41.731 416.228 41.731C417.724 41.731 419.044 42.083 420.188 42.787C421.354 43.469 422.267 44.437 422.927 45.691C423.587 46.923 423.917 48.375 423.917 50.047C423.917 51.719 423.587 53.182 422.927 54.436C422.267 55.668 421.354 56.636 420.188 57.34C419.044 58.022 417.724 58.363 416.228 58.363ZM416.228 54.997C417.394 54.997 418.34 54.568 419.066 53.71C419.814 52.852 420.188 51.631 420.188 50.047C420.188 48.463 419.814 47.242 419.066 46.384C418.34 45.526 417.394 45.097 416.228 45.097C415.084 45.097 414.149 45.526 413.423 46.384C412.697 47.242 412.334 48.463 412.334 50.047C412.334 51.631 412.697 52.852 413.423 53.71C414.149 54.568 415.084 54.997 416.228 54.997ZM428.441 58V42.127H431.774L431.972 44.008C432.412 43.392 432.995 42.864 433.721 42.424C434.447 41.962 435.305 41.731 436.295 41.731C437.945 41.731 439.287 42.259 440.321 43.315C441.377 44.371 441.905 45.922 441.905 47.968V58H438.176V48.859C438.176 47.605 437.923 46.67 437.417 46.054C436.911 45.416 436.229 45.097 435.371 45.097C434.425 45.097 433.655 45.427 433.061 46.087C432.467 46.725 432.17 47.682 432.17 48.958V58H428.441Z" fill="#F5EFE7"/>
</svg>
